<svg xmlns="http://www.w3.org/2000/svg" xmlns:xlink="http://www.w3.org/1999/xlink" width="88" height="88" viewBox="0 0 88 88">
  <defs>
    <filter id="Rectangle_89" x="0" y="0" width="88" height="88" filterUnits="userSpaceOnUse">
      <feOffset dy="3" input="SourceAlpha"/>
      <feGaussianBlur stdDeviation="3" result="blur"/>
      <feFlood flood-color="#cdd4ea" flood-opacity="0.467"/>
      <feComposite operator="in" in2="blur"/>
      <feComposite in="SourceGraphic"/>
    </filter>
  </defs>
  <g id="Group_139" data-name="Group 139" transform="translate(-21 -293)">
    <g transform="matrix(1, 0, 0, 1, 21, 293)" filter="url(#Rectangle_89)">
      <rect id="Rectangle_89-2" data-name="Rectangle 89" width="70" height="70" rx="10" transform="translate(9 6)" fill="#fff"/>
    </g>
    <text id="eClaim" transform="translate(38 355)" fill="#3b3858" font-size="12" font-family="Nunito-Bold, Nunito" font-weight="700" letter-spacing="0.03em"><tspan x="0" y="0">eClaim</tspan></text>
    <g id="Group_156" data-name="Group 156" transform="translate(-27.8 -2)">
      <g id="Rectangle_115" data-name="Rectangle 115" transform="translate(66 312)" fill="#fff" stroke="#5a9aed" stroke-width="0.5">
        <rect width="15.5" height="16" rx="2" stroke="none"/>
        <rect x="0.25" y="0.25" width="15" height="15.5" rx="1.75" fill="none"/>
      </g>
      <rect id="Rectangle_116" data-name="Rectangle 116" width="14" height="14" rx="1" transform="translate(65.8 311.8)" fill="#fff"/>
      <path id="Icon_ionic-ios-paper" data-name="Icon ionic-ios-paper" d="M6.022,4.513V15.959a.494.494,0,0,1-.488.5h0a.494.494,0,0,1-.488-.5V5.65H4.489A1.125,1.125,0,0,0,3.375,6.788V17.026a1.125,1.125,0,0,0,1.114,1.138h12.3a1.088,1.088,0,0,0,1.076-1.1V4.513a1.125,1.125,0,0,0-1.114-1.138l-9.681.071A1.009,1.009,0,0,0,6.022,4.513ZM8.32,5.65h2.925a.494.494,0,0,1,.488.5h0a.494.494,0,0,1-.488.5H8.32a.494.494,0,0,1-.488-.5h0A.494.494,0,0,1,8.32,5.65Zm0,5.688h5.154a.494.494,0,0,1,.488.5h0a.494.494,0,0,1-.488.5H8.32a.494.494,0,0,1-.488-.5h0A.494.494,0,0,1,8.32,11.338Zm6.825,3.839H8.32a.494.494,0,0,1-.488-.5h0a.494.494,0,0,1,.488-.5h6.825a.494.494,0,0,1,.488.5h0A.494.494,0,0,1,15.145,15.177Zm0-5.688H8.32a.494.494,0,0,1-.488-.5h0a.494.494,0,0,1,.488-.5h6.825a.494.494,0,0,1,.488.5h0A.494.494,0,0,1,15.145,9.489Z" transform="translate(62.625 308.625)" fill="#85cbfd"/>
    </g>
  </g>
</svg>
