<svg xmlns="http://www.w3.org/2000/svg" width="70" height="70" viewBox="0 0 70 70">
  <g id="Group_663" data-name="Group 663" transform="translate(-111 -359)">
    <g id="Group_137" data-name="Group 137" transform="translate(81 60)">
      <rect id="Rectangle_89" data-name="Rectangle 89" width="70" height="70" rx="10" transform="translate(30 299)" fill="#fff"/>
      <text id="Feedback" transform="translate(38 355)" fill="#3b3858" font-size="12" font-family="Nunito-Bold, Nunito" font-weight="700" letter-spacing="0.03em"><tspan x="0" y="0">Feedback</tspan></text>
    </g>
    <g id="Group_641" data-name="Group 641" transform="translate(119.429 371.143)">
      <g id="Rectangle_113" data-name="Rectangle 113" transform="translate(1 1)" fill="#fff" stroke="#5a9aed" stroke-width="0.5">
        <rect width="16" height="16" rx="2" stroke="none"/>
        <rect x="0.25" y="0.25" width="15.5" height="15.5" rx="1.75" fill="none"/>
      </g>
      <rect id="Rectangle_114" data-name="Rectangle 114" width="15.713" height="15.713" rx="2" fill="#85cbfd"/>
      <path id="Icon_awesome-pen" data-name="Icon awesome-pen" d="M2.839.911l1.25,1.25L1.374,4.876.259,5A.234.234,0,0,1,0,4.74L.125,3.625,2.839.911ZM4.862.725,4.275.138a.469.469,0,0,0-.663,0L3.06.69,4.31,1.94l.552-.552a.469.469,0,0,0,0-.663Z" transform="translate(8.357 2.857)" fill="#fff"/>
      <line id="Line_37" data-name="Line 37" x2="8.785" transform="translate(3.071 11.357)" fill="none" stroke="#fff" stroke-linecap="round" stroke-width="1"/>
      <line id="Line_38" data-name="Line 38" x2="8.785" transform="translate(3.071 9.357)" fill="none" stroke="#fff" stroke-linecap="round" stroke-width="1"/>
      <line id="Line_39" data-name="Line 39" x2="3.215" transform="translate(2.856 7.357)" fill="none" stroke="#fff" stroke-linecap="round" stroke-width="1"/>
      <line id="Line_40" data-name="Line 40" x2="3.215" transform="translate(2.856 5.357)" fill="none" stroke="#fff" stroke-linecap="round" stroke-width="1"/>
    </g>
  </g>
</svg>
