<svg xmlns="http://www.w3.org/2000/svg" width="290.315" height="380.231" viewBox="0 0 290.315 380.231">
  <g id="Group_648" data-name="Group 648" transform="translate(-45.716 0)">
    <path id="Path_823" data-name="Path 823" d="M423.86,355.917a6.68,6.68,0,0,1,9.848-1.535,6.363,6.363,0,0,1,.646.616l26.254-3.822,1.461-19.742a5.726,5.726,0,0,1,11.421.844q0,.053-.009.105l-2.559,27.7-.012.062a5.187,5.187,0,0,1-5.012,3.639l-30.88-.533a6.241,6.241,0,0,1-.387.529,6.68,6.68,0,0,1-9.959.408q-.2-.2-.378-.422a6.7,6.7,0,0,1-.433-7.85Z" transform="translate(-197.234 -152.14)" fill="#ffe0e2"/>
    <path id="Path_824" data-name="Path 824" d="M514.343,672.224h-7.488l-3.562-28.882h11.051Z" transform="translate(-234.787 -300.119)" fill="#ffe0e2"/>
    <path id="Path_825" data-name="Path 825" d="M506.473,702.6H482.329v-.305a9.4,9.4,0,0,1,9.4-9.4h14.748Z" transform="translate(-225.007 -323.237)" fill="#3b3858"/>
    <path id="Path_826" data-name="Path 826" d="M604.783,660.851l-7.087,2.417L585,637.083l10.46-3.568Z" transform="translate(-272.903 -295.536)" fill="#ffe0e2"/>
    <path id="Path_827" data-name="Path 827" d="M609.352,688.445,586.5,696.239l-.1-.289a9.4,9.4,0,0,1,5.86-11.928h0l13.957-4.76Z" transform="translate(-273.321 -316.876)" fill="#3b3858"/>
    <path id="Path_828" data-name="Path 828" d="M518.048,222.644s-7.453-2.461-12.244,7.384A190.45,190.45,0,0,1,493.56,250.7l4.259.985s1.065-6.892,3.726-7.876l-1.065,8.861s31.941,10.338,46.315-.985l-.532-3.446s2.129.492,2.129,3.446l1.6-1.477s-1.6-2.954-6.388-6.892c-3.145-2.585-4.225-7.5-4.6-10.577a12.324,12.324,0,0,0-3.187-6.97C532.634,222.36,526.832,218.733,518.048,222.644Z" transform="translate(-229.824 -98.073)" fill="#3b3858"/>
    <circle id="Ellipse_181" data-name="Ellipse 181" cx="13.612" cy="13.612" r="13.612" transform="translate(277.36 131.745)" fill="#ffe0e2"/>
    <path id="Path_829" data-name="Path 829" d="M503.377,308.892l-2.475-.825s-4.95,2.062-4.95,5.775-.825,18.562-.825,18.562l11.137,1.237Z" transform="translate(-230.977 -143.713)" fill="#f2825a"/>
    <path id="Path_830" data-name="Path 830" d="M587.412,398.7a6.436,6.436,0,0,1-.147-8.4l-6.948-58.187a5.187,5.187,0,1,1,10.36-.534q0,.028,0,.057l6.216,58.249a6.242,6.242,0,0,1,.621.727,6.479,6.479,0,0,1-1.453,9.046q-.107.077-.217.151h0a6.485,6.485,0,0,1-5.479.792A6.4,6.4,0,0,1,587.412,398.7Z" transform="translate(-270.715 -152.389)" fill="#ffe0e2"/>
    <path id="Path_831" data-name="Path 831" d="M581.695,331.322l11.137-1.237s-.825-14.85-.825-18.562-4.95-5.775-4.95-5.775l-2.475.825Z" transform="translate(-271.361 -142.631)" fill="#f2825a"/>
    <path id="Path_832" data-name="Path 832" d="M504.666,392.3s-9.487,17.346-9.487,38.383-.825,117.561-.825,117.561,12.375,5.775,19.8-1.238l6.6-106.836L546.74,544.942s12.375,2.475,18.15-1.65l-11.137-73.012s-4.537-68.474-16.912-73.424S504.666,392.3,504.666,392.3Z" transform="translate(-230.617 -183.004)" fill="#3b3858"/>
    <path id="Path_833" data-name="Path 833" d="M516.61,249.072a37.274,37.274,0,0,0,11.3-12.283s8.844,9.826,14.248,10.317.491-11.791.491-11.791l-9.826-2.457-9.335.983-7.37,4.913Z" transform="translate(-240.347 -103.629)" fill="#3b3858"/>
    <path id="Path_834" data-name="Path 834" d="M540.188,301.088s.393-.211-23.1.645l-9.832,2.708-1.307.36s1.237,24.75,4.537,29.287,2.475,7.012,1.65,7.425-2.887-.412-1.65,1.65,2.887.825,1.237,2.062S509.251,351,509.251,351l36.3,4.95s1.238-16.087,4.537-24.337a106.288,106.288,0,0,0,4.125-11.55l-2.475-16.5Z" transform="translate(-236.027 -140.447)" fill="#f2825a"/>
    <path id="Path_835" data-name="Path 835" d="M273.036,33.1A33.1,33.1,0,0,0,239.939,0H118.787a33.1,33.1,0,0,0-33.1,33.1V346.812a33.1,33.1,0,0,0,33.1,33.1H239.939a33.1,33.1,0,0,0,33.1-33.1h0Z" transform="translate(-39.975 0)" fill="#3b3858"/>
    <path id="Path_836" data-name="Path 836" d="M273.979,40.86V354.114a24.7,24.7,0,0,1-24.673,24.717H127.528a24.7,24.7,0,0,1-24.717-24.682V40.86a24.7,24.7,0,0,1,24.682-24.717h14.8a11.741,11.741,0,0,0,10.873,16.176h69.408a11.741,11.741,0,0,0,10.873-16.176h15.813a24.7,24.7,0,0,1,24.717,24.673v.044Z" transform="translate(-47.961 -7.531)" fill="#fcfaf4"/>
    <path id="Path_837" data-name="Path 837" d="M273.979,87.2V76.535H257.83V17.668a24.64,24.64,0,0,0-8.568-1.526h-2.1V76.535H191.142V32.318h-10.67V76.535H133.524V16.143h-6a24.482,24.482,0,0,0-4.674.443V76.535H102.811V87.2h20.043v24.68l-20.043,11.571V135.78l20.043-11.571v73.43H102.811v10.67h20.043V314.475H102.811v10.67h20.043v53.243a24.5,24.5,0,0,0,4.674.443h6V325.145h46.948v53.686h10.67V325.145H247.16v53.686h2.1a24.642,24.642,0,0,0,8.568-1.526v-52.16h16.149v-10.67H257.83V268.061h16v-10.67h-16V208.309h16.149v-10.67H257.83V132.552h16.149v-10.67H257.83V87.2ZM165.6,87.2h0l-32.079,18.523h0V87.2Zm-32.08,30.842h0l46.948-27.107v106.7H133.524Zm0,196.429V208.309h46.948V314.475Zm113.635,0H191.142V268.061H247.16Zm0-57.084H191.142V208.309H247.16Zm0-59.752H191.142V132.552H247.16Zm0-75.757H191.142V87.2H247.16Z" transform="translate(-47.961 -7.53)" fill="#dfe4f5"/>
    <path id="Path_838" data-name="Path 838" d="M333.086,161.065c0,33.884-61.352,109.367-61.352,109.367s-61.352-75.483-61.352-109.367a61.352,61.352,0,1,1,122.7,0Z" transform="translate(-98.143 -46.516)" fill="#3f53d9"/>
    <path id="Path_839" data-name="Path 839" d="M329.938,177.991a36.278,36.278,0,1,1-36.278-36.278h0a36.261,36.261,0,0,1,36.278,36.245Z" transform="translate(-120.069 -66.109)" fill="#fcfaf4"/>
    <circle id="Ellipse_182" data-name="Ellipse 182" cx="13.515" cy="13.515" r="13.515" transform="translate(159.949 99.172)" fill="#3f53d9"/>
    <path id="Path_840" data-name="Path 840" d="M327.825,256.227a36.317,36.317,0,0,1-38.983-.005,20.272,20.272,0,0,1,38.982,0Z" transform="translate(-134.745 -112.672)" fill="#3f53d9"/>
    <circle id="Ellipse_183" data-name="Ellipse 183" cx="16.538" cy="16.538" r="16.538" transform="translate(157.052 235.12)" fill="#3f53d9"/>
    <path id="Path_841" data-name="Path 841" d="M289.954,711.78H.36c-.2,0-.36-.239-.36-.534s.161-.534.36-.534H289.954c.2,0,.36.239.36.534S290.153,711.78,289.954,711.78Z" transform="translate(45.716 -331.548)" fill="#cbcbcb"/>
  </g>
</svg>
