<svg xmlns="http://www.w3.org/2000/svg" width="300" height="433.895" viewBox="0 0 300 433.895">
  <g id="Group_658" data-name="Group 658" transform="translate(-9755 695.492)">
    <g id="Group_655" data-name="Group 655" transform="translate(9755 -695.492)">
      <path id="Path_873" data-name="Path 873" d="M636.495,307.627h0s-36.545-61.941-42.739-101.583S559.688,95.79,559.688,95.79V58.626S527.479,46.238,525,80.305s6.814,78.045,6.814,78.045.791,16.058-20.269,30.3L411.977,325.683l31.263,28.4S516.949,421.6,574.554,430.27h0Z" transform="translate(-336.495 3.625)" fill="#ffe0e2"/>
      <path id="Path_874" data-name="Path 874" d="M320.541,260.519h-2.1c-18.948,0-29.6,22.37-17.149,36.654,4.007,4.6,10.1,7.78,19.252,7.944Z" transform="translate(-295.922 -170.144)" fill="#ffe0e2"/>
      <path id="Path_875" data-name="Path 875" d="M320.541,336.638h-2.1c-18.948,0-29.6,22.37-17.149,36.654,4.007,4.6,10.1,7.78,19.252,7.944Z" transform="translate(-295.922 -201.666)" fill="#ffe0e2"/>
      <path id="Path_876" data-name="Path 876" d="M320.541,412.758h-2.1c-18.948,0-29.6,22.37-17.149,36.654,4.007,4.6,10.1,7.78,19.252,7.944Z" transform="translate(-295.922 -233.188)" fill="#ffe0e2"/>
      <path id="Path_877" data-name="Path 877" d="M320.541,488.877h-2.1c-18.948,0-29.6,22.37-17.149,36.654,4.007,4.6,10.1,7.78,19.252,7.943Z" transform="translate(-295.922 -264.709)" fill="#ffe0e2"/>
      <path id="Path_878" data-name="Path 878" d="M500.391,185.993h-1.843v-50.5a29.228,29.228,0,0,0-29.228-29.228H362.33A29.228,29.228,0,0,0,333.1,135.494V412.537a29.228,29.228,0,0,0,29.228,29.228H469.32a29.228,29.228,0,0,0,29.228-29.228v-190.6h1.843Z" transform="translate(-311.319 -106.266)" fill="#3f3d56"/>
      <path id="Path_879" data-name="Path 879" d="M498.026,141.072V417.706a21.914,21.914,0,0,1-8.015,16.91,20.254,20.254,0,0,1-1.728,1.27,21.727,21.727,0,0,1-12.085,3.648h-107.5a21.578,21.578,0,0,1-5.172-.619,21.827,21.827,0,0,1-16.656-21.208V141.072a21.829,21.829,0,0,1,21.826-21.828h13.047a10.367,10.367,0,0,0,9.6,14.284h61.29a10.38,10.38,0,0,0,9.607-14.284H476.2a21.829,21.829,0,0,1,21.828,21.826Z" transform="translate(-317.018 -111.641)" fill="#6980f6"/>
      <path id="Path_880" data-name="Path 880" d="M437.36,470.909s10.553,29.313,2.345,45.729,12.9,35.176,12.9,35.176,55.109-28.141,48.074-42.211-18.761-32.831-16.415-44.556Z" transform="translate(-354.493 -254.841)" fill="#ffe0e2"/>
      <circle id="Ellipse_192" data-name="Ellipse 192" cx="37.521" cy="37.521" r="37.521" transform="translate(65.865 152.165)" fill="#ffe0e2"/>
      <path id="Path_881" data-name="Path 881" d="M517.653,602.177a21.82,21.82,0,0,1-3.345,3.419,20.265,20.265,0,0,1-1.728,1.27c-3.463,2.3-7.613,3.029-12.085,3.029H405.541l1.641-45.576,10.555-23.451a48.98,48.98,0,0,0,7.575,4.887c.632.341,1.3.681,2,1.016,9.886,4.776,26.046,8.975,41.711-2.719A59.75,59.75,0,0,0,483.462,527.8l29.248,16.581,1.536,17.963Z" transform="translate(-341.316 -280.83)" fill="#fff"/>
      <path id="Path_882" data-name="Path 882" d="M409.167,520.151,407.7,535.493l-.774,8.108-1.158,12.072-4.949,51.671H372.6a21.57,21.57,0,0,1-5.172-.619l-11.125-51.442.322-.211Z" transform="translate(-320.928 -277.661)" fill="#2f2e41"/>
      <path id="Path_883" data-name="Path 883" d="M562.755,523.78V578.6a21.914,21.914,0,0,1-8.015,16.91,20.293,20.293,0,0,1-1.728,1.27,21.728,21.728,0,0,1-12.085,3.648H503.174c.824-17.325,2.279-34.234,3.983-48.964.731-6.275,1.505-12.153,2.3-17.5,2.552-17.232,5.29-28.932,7.253-30.512l12.983,8.566Z" transform="translate(-381.747 -270.748)" fill="#2f2e41"/>
      <path id="Path_884" data-name="Path 884" d="M379.366,621.5l-1.35,9.849h-9.322a21.572,21.572,0,0,1-5.172-.619,21.827,21.827,0,0,1-16.656-21.208v-1.982l4.361-28.251,1.493-.211,6.714-.96Z" transform="translate(-317.018 -301.665)" fill="#2f2e41"/>
      <path id="Path_885" data-name="Path 885" d="M593.926,550.345V598.02a21.914,21.914,0,0,1-8.015,16.91,20.284,20.284,0,0,1-1.728,1.27l-5.736-24.962,7.4-19.555Z" transform="translate(-412.919 -290.164)" fill="#2f2e41"/>
      <path id="Path_886" data-name="Path 886" d="M478,357.585a43.834,43.834,0,0,0-24.934-19.062l-7.624,6.1,2.964-7.113a40.351,40.351,0,0,0-7.535-.435l-6.859,8.819,2.839-8.517A43.415,43.415,0,0,0,406.9,355.19c-8.73,12.588-10.2,30.094-1.617,42.78,2.357-7.243,5.218-14.04,7.575-21.284.544.233,2.6.218,5.585.027l2.868-6.691.8,6.408c8.888-.774,22.072-2.474,30.5-4.032l-.819-4.916,4.9,4.085c2.582-.594,4.114-1.133,3.988-1.545,6.267,10.1,12.476,16.556,18.743,26.659C481.807,382.43,486.006,370.585,478,357.585Z" transform="translate(-338.836 -201.835)" fill="#2f2e41"/>
      <ellipse id="Ellipse_193" data-name="Ellipse 193" cx="2.54" cy="5.08" rx="2.54" ry="5.08" transform="translate(134.549 183.427)" fill="#ffe0e2"/>
      <ellipse id="Ellipse_194" data-name="Ellipse 194" cx="46.765" cy="116.856" rx="46.765" ry="116.856" transform="translate(172.096 152.165)" fill="#ffe0e2"/>
    </g>
    <g id="Group_657" data-name="Group 657" transform="translate(9819.547 -663.651)">
      <path id="Path_893" data-name="Path 893" d="M240.281,234.294H223.932v-2.515h13.833V217.946h2.515Z" transform="translate(-157.866 -151.294)" fill="#fff"/>
      <path id="Path_894" data-name="Path 894" d="M112.685,120.532H110.17V104.183h16.349V106.7H112.685Z" transform="translate(-110.17 -104.183)" fill="#fff"/>
      <path id="Path_898" data-name="Path 898" d="M223.932,234.294h16.349v-2.515H226.447V217.946h-2.515Z" transform="translate(-223.932 -151.294)" fill="#fff"/>
      <path id="Path_899" data-name="Path 899" d="M124,120.532h2.515V104.183H110.17V106.7H124Z" transform="translate(-44.104 -104.183)" fill="#fff"/>
      <g id="Group_656" data-name="Group 656" transform="translate(16.349 16.349)">
        <path id="Path_895" data-name="Path 895" d="M140.184,207.541a1.78,1.78,0,0,1-2.268-2.092c1.036-4.309,4.974-14.847,19.323-19.28a28.406,28.406,0,0,1,17.709-.1,28.753,28.753,0,0,1,9.019,5.046,1.766,1.766,0,0,1,.289,2.48l-.011.014a1.807,1.807,0,0,1-2.518.286c-2.619-2.063-10.566-8.332-23.445-4.353-12.576,3.885-15.992,12.972-16.878,16.69A1.754,1.754,0,0,1,140.184,207.541Z" transform="translate(-137.872 -184.704)" fill="#fff"/>
        <path id="Path_896" data-name="Path 896" d="M211.444,272.481a1.773,1.773,0,0,1-.44.083c-11.209.6-18.341-8.709-18.634-9.1l-.054-.09c-.179-.277-4.494-6.843-2.594-12.057.873-2.384,2.8-4.057,5.752-4.968,2.743-.847,4.988-.6,6.9.768a13.866,13.866,0,0,1,3.544,4.37c2.024,3.324,3.265,5.015,7.112,4.04a4.092,4.092,0,0,0,2.838-2.778c.97-2.8.11-6.616-2.165-9.5-2.939-3.746-11.164-9.968-21.313-6.834a18.626,18.626,0,0,0-10.255,7.609A19.553,19.553,0,0,0,179,254.274c-.039,6.5,5.289,15.055,5.339,15.132a1.762,1.762,0,0,1-.56,2.429l-.016.01a1.8,1.8,0,0,1-2.471-.553c-.24-.391-5.93-9.511-5.884-17.025a22.581,22.581,0,0,1,31.289-20.49,24.787,24.787,0,0,1,9.822,7.258c3.025,3.853,4.091,8.9,2.714,12.832a7.611,7.611,0,0,1-5.345,5.082c-6.584,1.675-9.163-2.542-11.044-5.618-1.931-3.153-3-4.632-6.338-3.6a4.787,4.787,0,0,0-3.437,2.777c-.646,1.782-.034,4.066.594,5.667l.02.05a14.475,14.475,0,0,0,3.673,5.342c2.583,2.385,7.378,5.785,13.489,5.457a1.765,1.765,0,0,1,1.871,1.652v.017a1.8,1.8,0,0,1-1.269,1.788Z" transform="translate(-170.023 -225.237)" fill="#fff"/>
        <path id="Path_897" data-name="Path 897" d="M239.566,316.3a1.809,1.809,0,0,1-1.415-.148,28.543,28.543,0,0,1-12.2-13.251l-.011-.036c-1.761-3.937-2.822-9.953-.483-15.037,1.727-3.751,4.968-6.388,9.617-7.824a14.27,14.27,0,0,1,14.822,3.6,21.963,21.963,0,0,1,4.586,6.5,1.795,1.795,0,1,1-3.3,1.406,18.391,18.391,0,0,0-3.866-5.414,10.716,10.716,0,0,0-11.2-2.7c-3.63,1.121-6.129,3.1-7.408,5.892-1.845,4.014-.9,9.026.483,12.111a25.054,25.054,0,0,0,10.749,11.679,1.757,1.757,0,0,1,.667,2.394l-.014.024A1.8,1.8,0,0,1,239.566,316.3Z" transform="translate(-211.738 -265.703)" fill="#fff"/>
        <circle id="Ellipse_201" data-name="Ellipse 201" cx="2.287" cy="2.287" r="2.287" transform="translate(26.123 28.365)" fill="#fff"/>
      </g>
    </g>
  </g>
</svg>
