<svg xmlns="http://www.w3.org/2000/svg" width="311.33" height="406.573" viewBox="0 0 311.33 406.573">
  <g id="Group_660" data-name="Group 660" transform="translate(-31.09 -337.169)">
    <path id="Path_553" data-name="Path 553" d="M5944.551-7.354c-59.643,58.111-188.384,30.549-198.567-11.314s-27.147-51.381-34.624-96.242-30.153-147.822,15.444-194.154,89.888-42.355,113.256-23.534,30.739,20.073,63.864,34.785,55.089-21.511,77.557,0,27.8,61.6,25.135,86.866S6004.194-65.465,5944.551-7.354Z" transform="translate(-5668 683)" fill="#dfe4f5"/>
    <g id="Group_72" data-name="Group 72">
      <g id="Group_77" data-name="Group 77">
        <path id="Path_502" data-name="Path 502" d="M5752.113-245.239l19.161,86.73,112.577-53.917L5864.689-297.5Z" transform="translate(-5643 694)" fill="#f8d870" opacity="0.74"/>
        <path id="Path_503" data-name="Path 503" d="M5752.113-256.011l15.211,68.853,89.373-42.8L5841.486-297.5Z" transform="translate(-5707 689)" fill="#f8d870" opacity="0.55"/>
        <path id="Path_527" data-name="Path 527" d="M5875.586-185.4l-79.051,37.852L5783.661-207.8l-37.908,18.391" transform="translate(-5668 683)" fill="none" stroke="#3b3858" stroke-linecap="round" stroke-linejoin="round" stroke-width="5"/>
        <path id="Path_530" data-name="Path 530" d="M5717.758-252.246l84.587-39.416,9.111,41.6,50.113-22.976" transform="translate(-5668 681)" fill="none" stroke="#3b3858" stroke-linecap="round" stroke-linejoin="round" stroke-width="5"/>
        <path id="Path_531" data-name="Path 531" d="M5895.144-261l8.865,37.573" transform="translate(-5668 683)" fill="none" stroke="#3b3858" stroke-linecap="round" stroke-linejoin="round" stroke-width="5"/>
        <path id="Path_541" data-name="Path 541" d="M5807.24-248.105l-30.473,13.713,5.028,23.769" transform="translate(-5669 681)" fill="none" stroke="#e9c54b" stroke-linecap="round" stroke-linejoin="round" stroke-width="5"/>
        <path id="Path_542" data-name="Path 542" d="M5905.917-217.141l2.976,15.777-27.047,12.712" transform="translate(-5668 683)" fill="none" stroke="#e9c54b" stroke-linecap="round" stroke-linejoin="round" stroke-width="5"/>
        <path id="Path_543" data-name="Path 543" d="M5752.113-268.265l10.719,48.519,62.979-30.162L5815.092-297.5Z" transform="translate(-5558.113 647.588)" fill="#f8d870" opacity="0.55"/>
        <path id="Path_544" data-name="Path 544" d="M5866.026-283.1l-5.15-21.392,65.364-30.107,10.894,50.112-17.232,8.121" transform="translate(-5668 683)" fill="none" stroke="#3b3858" stroke-linecap="round" stroke-linejoin="round" stroke-width="5"/>
        <path id="Path_545" data-name="Path 545" d="M5866.956-277.607l23.007-10.056,5.18,21.179" transform="translate(-5668 683)" fill="none" stroke="#e9c54b" stroke-linecap="round" stroke-linejoin="round" stroke-width="5"/>
      </g>
      <path id="Path_551" data-name="Path 551" d="M5738.031-186.139l-9.706,4.952-8.319-37.04" transform="translate(-5668 683)" fill="none" stroke="#3b3858" stroke-linecap="round" stroke-linejoin="round" stroke-width="5"/>
      <path id="Path_552" data-name="Path 552" d="M5718.758-225.506l-2.971-12.677" transform="translate(-5669 679)" fill="none" stroke="#3b3858" stroke-linecap="round" stroke-linejoin="round" stroke-width="5"/>
    </g>
    <g id="Group_82" data-name="Group 82">
      <path id="Path_556" data-name="Path 556" d="M5816.011,22.679l6.121-3.516V-5.992h-6.121" transform="translate(-5668 683)" fill="#a2b9f9"/>
      <path id="Path_557" data-name="Path 557" d="M5991.93-107.6l-3.959,22.473s-1.536,4.939-4.11,12.218-5.043,12.883-5.043,12.883l6.577-47.575Z" transform="translate(-5668 683)" fill="#a2b9f9"/>
      <path id="Path_558" data-name="Path 558" d="M5816.011-9.356V22.679l-12.148-11.725-1.568-31.9Z" transform="translate(-5668 683)" fill="#44406e"/>
      <path id="Path_559" data-name="Path 559" d="M5986.713-112.056l-7.833,51.785L5960.6-75.937l3.917-36.119Z" transform="translate(-5668 683)" fill="#44406e"/>
      <g id="Group_78" data-name="Group 78" transform="translate(-6 5)">
        <path id="Union_13" data-name="Union 13" d="M-5565.872,872.83l-64.117-71.013-1.385-22.383-.312-.358,193.971-99.084,60.495,61.624.215-.123-.074.267.074.075-.113.067-6.27,22.674L-5565.357,873.35v.05l-.03-.033-.485.29Z" transform="translate(5722.007 -199.669)" fill="#6980f6"/>
        <g id="Group_72-2" data-name="Group 72">
          <path id="Path_512" data-name="Path 512" d="M5768.917-100.037l52.9,58.509,140.072-79.224" transform="translate(-5666 692)" fill="none" stroke="#596ada" stroke-linecap="round" stroke-width="5"/>
          <path id="Path_537" data-name="Path 537" d="M5975.319-99.753,5825.02-9.038l-64.94-71.3-1.76-23.1,153.733-80.338" transform="translate(-5668 683)" fill="none" stroke="#3b3858" stroke-linecap="round" stroke-linejoin="round" stroke-width="5"/>
          <path id="Path_538" data-name="Path 538" d="M5930.129-192.812l22.093-11.716L6013-141.6l-6.884,24.771-12.72,7.7" transform="translate(-5668 683)" fill="none" stroke="#3b3858" stroke-linecap="round" stroke-linejoin="round" stroke-width="5"/>
          <path id="Path_539" data-name="Path 539" d="M6013-142.137l-36.5,21.372" transform="translate(-5668 683)" fill="none" stroke="#3b3858" stroke-linecap="round" stroke-linejoin="round" stroke-width="5"/>
          <path id="Path_540" data-name="Path 540" d="M5824.512-11.084V-22.31" transform="translate(-5668 683)" fill="none" stroke="#3b3858" stroke-linecap="round" stroke-linejoin="round" stroke-width="5"/>
        </g>
      </g>
    </g>
    <g id="Group_79" data-name="Group 79" transform="translate(-4 -6)">
      <path id="Path_506" data-name="Path 506" d="M5846.24-74.807l-32.693-32.369v4.186L5846.1-66.361Z" transform="translate(-5668 683)" fill="#6d8fff"/>
      <g id="Group_74" data-name="Group 74">
        <path id="Path_505" data-name="Path 505" d="M5817.7-107.16l32.564,32.637,114.013-62.664-31.767-30.9Z" transform="translate(-5672 683)" fill="#dfe4f5"/>
        <path id="Path_507" data-name="Path 507" d="M5960.275-136.819v7.131L5846.059-66.333v-8.655Z" transform="translate(-5668 683)" fill="#3f53d9"/>
        <path id="Path_525" data-name="Path 525" d="M5921.229-105.416l-75.572,41.748-34.891-37.443v-7.009l116.725-59.709" transform="translate(-5668 683)" fill="none" stroke="#3b3858" stroke-linecap="round" stroke-linejoin="round" stroke-width="5"/>
        <path id="Path_526" data-name="Path 526" d="M5930.756-112.015l31.932-17.56v-9.5l-25.035-24.342" transform="translate(-5668 684)" fill="none" stroke="#3b3858" stroke-linecap="round" stroke-linejoin="round" stroke-width="5"/>
      </g>
    </g>
    <g id="Group_83" data-name="Group 83">
      <path id="Union_14" data-name="Union 14" d="M-6113,705.051-6065.3,683l5.348,27.73-19.273,9.382-1.142,9.131-4.048-6.6-22.129,10.772Z" transform="translate(6265.851 -247.57)" fill="#3f53d9"/>
      <ellipse id="Ellipse_125" data-name="Ellipse 125" cx="2.5" cy="3" rx="2.5" ry="3" transform="translate(170 460)" fill="#fff"/>
      <ellipse id="Ellipse_126" data-name="Ellipse 126" cx="2.5" cy="3" rx="2.5" ry="3" transform="translate(179 457)" fill="#fff"/>
      <ellipse id="Ellipse_127" data-name="Ellipse 127" cx="2.5" cy="3" rx="2.5" ry="3" transform="translate(188 452)" fill="#fff"/>
    </g>
    <g id="Group_87" data-name="Group 87" transform="translate(5 42)" opacity="0.87">
      <path id="Path_562" data-name="Path 562" d="M7063.295-246.232l9.527,42.23,59.225-27.037-10.558-41.2Z" transform="translate(-7003 683)" fill="#fff"/>
      <g id="Group_86" data-name="Group 86">
        <path id="Path_563" data-name="Path 563" d="M7064.447-241.171l58.177-26.641-1.166-4.62-58.2,26.2Z" transform="translate(-7003 683)" fill="#dfe4f5"/>
        <g id="Group_85" data-name="Group 85">
          <circle id="Ellipse_128" data-name="Ellipse 128" cx="0.5" cy="0.5" r="0.5" transform="translate(63 438)" fill="#ffd02f"/>
          <circle id="Ellipse_129" data-name="Ellipse 129" cx="0.5" cy="0.5" r="0.5" transform="translate(65 437)" fill="#6d8fff"/>
          <circle id="Ellipse_130" data-name="Ellipse 130" cx="0.5" cy="0.5" r="0.5" transform="translate(67 436)" fill="#d66464"/>
        </g>
        <g id="Group_84" data-name="Group 84">
          <path id="Path_564" data-name="Path 564" d="M7120.217-270.187l-.792,1.838" transform="translate(-7003 683)" fill="none" stroke="#afabd1" stroke-linecap="round" stroke-width="0.4"/>
          <path id="Path_565" data-name="Path 565" d="M7120.217-270.187l-.792,1.838" transform="translate(-152.447 -6706.089) rotate(90)" fill="none" stroke="#afabd1" stroke-linecap="round" stroke-width="0.4"/>
        </g>
      </g>
    </g>
    <g id="Group_88" data-name="Group 88" transform="translate(1 -19)">
      <g id="Group_79-2" data-name="Group 79" transform="translate(-5 5)">
        <g id="Group_75" data-name="Group 75" transform="translate(41 -7)">
          <g id="Group_69" data-name="Group 69">
            <path id="Path_513" data-name="Path 513" d="M5742.6,79.243S5718.331,59.386,5718.331,41,5723.2-.064,5723.2-.064l4.635,7.467V-6.4s6.25-28.405,10.328-46.623-.815-34.188,4.441-33.045,12.1,22.488,16.585,37.616,1.348,22.9,1.348,22.9L5754.31-13.2l6.223-4.377s4.377,10.3,4.635,29.612,0,31.157-4.635,40.684-11.33,14.935-12.1,19.827S5742.6,79.243,5742.6,79.243Z" transform="translate(-5668 683)" fill="#0e9f87" stroke="#3b3858" stroke-linecap="round" stroke-linejoin="round" stroke-width="5" stroke-dasharray="200 90"/>
            <path id="Path_514" data-name="Path 514" d="M5746.094-61.187c2.971,13.667-7.29,29.693-7.933,61.88s4.558,71.059,4.558,71.059" transform="translate(-5668 683)" fill="none" stroke="#197c79" stroke-linecap="round" stroke-linejoin="round" stroke-width="3"/>
            <path id="Path_515" data-name="Path 515" d="M5738.106,17.876a47.529,47.529,0,0,0,10.158-11.389C5752.537-.4,5755.2-9.656,5755.2-9.656" transform="translate(-5667 690)" fill="none" stroke="#197c79" stroke-linecap="round" stroke-linejoin="round" stroke-width="3"/>
            <path id="Path_516" data-name="Path 516" d="M5740.541,57.689l-15.647-33.276" transform="translate(-5668 683)" fill="none" stroke="#197c79" stroke-linecap="round" stroke-linejoin="round" stroke-width="3"/>
            <path id="Path_517" data-name="Path 517" d="M5739.162-21.678s5.893-9.9,8.914-15.846,4.548-15.114,4.548-15.114" transform="translate(-5668 694)" fill="none" stroke="#197c79" stroke-linecap="round" stroke-linejoin="round" stroke-width="3"/>
          </g>
          <path id="Path_534" data-name="Path 534" d="M5747.261-81.121a174.379,174.379,0,0,1,10.264,24c3.8,11.78,4.177,26.483,4.177,26.483" transform="translate(-5668 683)" fill="none" stroke="#3b3858" stroke-linecap="round" stroke-linejoin="round" stroke-width="5"/>
        </g>
        <path id="Path_550" data-name="Path 550" d="M5803.237-22.969s2.207,17.179,2.969,40.186-9.447,35.5-9.447,35.5" transform="translate(-5668 683)" fill="none" stroke="#277d6f" stroke-linecap="round" stroke-linejoin="round" stroke-width="5"/>
      </g>
      <g id="Group_81" data-name="Group 81" transform="translate(0 -18)">
        <path id="Path_546" data-name="Path 546" d="M5725.2-66.865s-1.576-23.516,6.267-36.152,25.105-14.394,25.105-14.394" transform="translate(-5668 683)" fill="none" stroke="#e89ca1" stroke-linecap="round" stroke-linejoin="round" stroke-width="5"/>
        <g id="Group_80" data-name="Group 80">
          <g id="Group_76" data-name="Group 76" transform="translate(41 -7)">
            <path id="Path_535" data-name="Path 535" d="M5722.006,83.3s-38.828-31.114-36-64.492,4.526-23.194,4.526-40.732-.566-13.577-4.526-29.417-1.329-31.43,7.156-46.138,49.609-22.193,43.082,13.49-10.771,21.867-11.75,48.739,13.49,23.934,7.833,58.747S5716.662,64.4,5724.5,75.284,5722.006,83.3,5722.006,83.3Z" transform="translate(-5668 683)" fill="#f2b5b9" stroke="#3b3858" stroke-linecap="round" stroke-linejoin="round" stroke-width="5" stroke-dasharray="150 80"/>
            <path id="Path_536" data-name="Path 536" d="M5713.3-92.389c-2.009,5.021-9.7,39.3-5.345,68.02s-6.471,36.761-4.852,56.952,21.517,48.287,21.517,48.287" transform="translate(-5668 683)" fill="none" stroke="#ffd5d5" stroke-linecap="round" stroke-linejoin="round" stroke-width="3"/>
          </g>
          <path id="Path_548" data-name="Path 548" d="M5770,30.586a107.123,107.123,0,0,1-2.885,17.22c-2.141,7.694-2.7,8.475-2.614,12.081-.09,3.606,3.206,6.508,4.275,10.385s.389,3.962-.467,5.495" transform="translate(-5668 683)" fill="none" stroke="#e89ca1" stroke-linecap="round" stroke-linejoin="round" stroke-width="5"/>
        </g>
      </g>
    </g>
  </g>
</svg>
