<svg xmlns="http://www.w3.org/2000/svg" width="300" height="406.172" viewBox="0 0 300 406.172">
  <g id="Group_653" data-name="Group 653" transform="translate(-137.283)">
    <path id="Path_855" data-name="Path 855" d="M534.473,510.1l46.205,45.215s92.149-33.526,115.959-86.747-21.009-184.876-21.009-184.876l-99.441,54.622Z" transform="translate(-373.777 -164.261)" fill="#ffe0e2"/>
    <path id="Path_856" data-name="Path 856" d="M817.255,243.4l29.412,2.8s15.406,33.614-32.213,36.415Z" transform="translate(-411.762 -160.379)" fill="#ffe0e2"/>
    <path id="Path_857" data-name="Path 857" d="M817.255,300.743l29.412,2.8s15.406,33.614-32.213,36.415Z" transform="translate(-411.762 -165.904)" fill="#ffe0e2"/>
    <path id="Path_858" data-name="Path 858" d="M817.255,362.739l29.412,2.8s15.406,33.614-32.213,36.415Z" transform="translate(-411.762 -171.877)" fill="#ffe0e2"/>
    <path id="Path_859" data-name="Path 859" d="M807.956,424.735l29.412,2.8s15.406,33.614-32.213,36.415Z" transform="translate(-410.866 -177.85)" fill="#ffe0e2"/>
    <path id="Path_860" data-name="Path 860" d="M811.806,248.049h-2.232V186.912a35.384,35.384,0,0,0-35.385-35.385H644.663a35.384,35.384,0,0,0-35.385,35.385v335.4A35.384,35.384,0,0,0,644.663,557.7H774.19a35.385,35.385,0,0,0,35.385-35.384V291.567h2.232Z" transform="translate(-391.994 -151.527)" fill="#3f3d56"/>
    <path id="Path_861" data-name="Path 861" d="M803.081,188.139V523.05a26.42,26.42,0,0,1-26.426,26.423H646.505a26.421,26.421,0,0,1-26.422-26.424V188.139a26.422,26.422,0,0,1,26.424-26.423H662.3a12.553,12.553,0,0,0,11.621,17.3H748.13a12.558,12.558,0,0,0,11.621-17.3h16.907a26.421,26.421,0,0,1,26.422,26.424Z" transform="translate(-393.035 -152.509)" fill="#fcfaf4"/>
    <rect id="Rectangle_289" data-name="Rectangle 289" width="18.462" height="0.904" transform="translate(417.425 91.775) rotate(-20.222)" opacity="0.2"/>
    <rect id="Rectangle_290" data-name="Rectangle 290" width="18.462" height="0.904" transform="translate(417.425 144.187) rotate(-20.222)" opacity="0.2"/>
    <rect id="Rectangle_291" data-name="Rectangle 291" width="18.462" height="0.904" transform="translate(417.425 200.213) rotate(-20.222)" opacity="0.2"/>
    <rect id="Rectangle_292" data-name="Rectangle 292" width="9.355" height="0.903" transform="translate(417.24 253.923) rotate(-25.639)" opacity="0.2"/>
    <path id="Path_862" data-name="Path 862" d="M302.591,260.164,292.064,283.4l-19.248,42.481V250.739Z" transform="translate(-45.768 -24.158)" fill="#ffe0e2"/>
    <path id="Path_863" data-name="Path 863" d="M768.468,298.069c0,31.813-29.416,27-65.7,27s-65.7,4.812-65.7-27,14.369-88.2,65.7-88.2C755.868,209.866,768.468,266.256,768.468,298.069Z" transform="translate(-394.671 -150.297)" fill="#2f2e41"/>
    <path id="Path_864" data-name="Path 864" d="M816.114,428.564l2.395,14.964V546.7a26.221,26.221,0,0,1-3.425,13.013l-24.055-42.173-8.666-88.323L780.2,407.156l32.594.687Z" transform="translate(-408.462 -176.157)" fill="#ffe0e2"/>
    <path id="Path_865" data-name="Path 865" d="M803.081,419.811c-1.157-3.759-3.118-10.112-5.368-17.2-3.958-12.479-8.8-27.254-11.675-34.294-5.485-13.437-33.435-8.052-33.435-8.052l-95.76-3.587s-3.569-.47-19.627-2.6c-6.732-.895-12.6,8.54-17.133,19.808v35.468l22.311,1.7a80.523,80.523,0,0,0-3.063,19.221c-.253,8.9,1.319,18.85,8.106,25.022,14.63,13.338,19.338,73.376,19.338,73.376L656.482,568H776.659a26.42,26.42,0,0,0,26.423-26.426V527.012c-7.582-12.272-13.808-18.444-13.808-18.444l-21.5-84.555,32.911-.569,2.395-.045Z" transform="translate(-393.035 -171.037)" fill="#880122"/>
    <circle id="Ellipse_188" data-name="Ellipse 188" cx="44.211" cy="44.211" r="44.211" transform="translate(266.779 83.079)" fill="#ffe0e2"/>
    <path id="Path_866" data-name="Path 866" d="M653,278.579h17.486l7.714-21.6,1.543,21.6H688.1l4.5-12.6.9,12.6h62.1a46.8,46.8,0,0,0-46.8-46.8h-9a46.8,46.8,0,0,0-46.8,46.8Z" transform="translate(-396.206 -152.408)" fill="#2f2e41"/>
    <path id="Path_867" data-name="Path 867" d="M484.55,477.377h0l5.6-114.847,58.824-98.04,16.807-42.017s39.216,4.2,7,84.035l-13.305,42.718h0c11.994,25.833,9.171,53.971,9.171,82.453v97.887c0,23.049-2.618,1.946-15.4,21.124h0Z" transform="translate(-347.267 -158.363)" fill="#ffe0e2"/>
    <path id="Path_868" data-name="Path 868" d="M257.025,121.943l-11.7-5.747.4-.811,10.8,5.311,16.311-42.764.844.323Z" transform="translate(-43.119 -7.509)" opacity="0.2"/>
    <circle id="Ellipse_189" data-name="Ellipse 189" cx="24.399" cy="24.399" r="24.399" transform="translate(295.391 331.946)" fill="#6980f6"/>
    <circle id="Ellipse_190" data-name="Ellipse 190" cx="16.454" cy="16.454" r="16.454" transform="translate(246.406 340.795)" fill="#fff"/>
    <path id="Path_869" data-name="Path 869" d="M657.882,562.2a17.169,17.169,0,1,1,17.169-17.169A17.169,17.169,0,0,1,657.882,562.2Zm0-32.908a15.739,15.739,0,1,0,15.739,15.739A15.739,15.739,0,0,0,657.882,529.3Z" transform="translate(-395.022 -187.787)" fill="#dfe4f5"/>
    <g id="Group_38" data-name="Group 38" transform="translate(250.292 349.56)">
      <path id="Path_63" data-name="Path 63" d="M661.9,551.769H645.864a.339.339,0,0,1-.06,0l7.585-13.137a.531.531,0,0,1,.924,0l5.09,8.816.244.422Z" transform="translate(-645.804 -538.358)" fill="#dfe4f5"/>
      <path id="Path_65" data-name="Path 65" d="M672.018,552.182h-13.87l2.688-3.9.193-.281,3.5-5.087a.709.709,0,0,1,1.053-.063.638.638,0,0,1,.05.063Z" transform="translate(-646.994 -538.771)" fill="#dfe4f5"/>
    </g>
    <circle id="Ellipse_191" data-name="Ellipse 191" cx="16.454" cy="16.454" r="16.454" transform="translate(359.362 340.795)" fill="#fff"/>
    <path id="Path_870" data-name="Path 870" d="M782.882,562.2a17.169,17.169,0,1,1,17.169-17.169A17.169,17.169,0,0,1,782.882,562.2Zm0-32.908a15.739,15.739,0,1,0,15.739,15.739A15.739,15.739,0,0,0,782.882,529.3Z" transform="translate(-407.066 -187.787)" fill="#dfe4f5"/>
    <path id="Path_871" data-name="Path 871" d="M790.758,544.491l-.535.535v-3.874a.783.783,0,0,0-.783-.783H777.7a.783.783,0,0,0,0,1.565h10.958v3.091l-.535-.535a.783.783,0,0,0-1.336.553v.039a.783.783,0,0,0,.229.553l1.871,1.871a.782.782,0,0,0,1.107,0l1.871-1.871a.783.783,0,0,0,.229-.553v-.039a.783.783,0,0,0-1.336-.553Z" transform="translate(-408.145 -188.992)" fill="#dfe4f5"/>
    <path id="Path_872" data-name="Path 872" d="M790.107,551.011H779.149V547.92l.535.535a.783.783,0,0,0,1.336-.553v-.039a.783.783,0,0,0-.229-.553l-1.871-1.871a.782.782,0,0,0-1.107,0l-1.871,1.871a.783.783,0,0,0-.229.553v.039a.783.783,0,0,0,1.336.553l.535-.535v3.874a.783.783,0,0,0,.783.783h11.741a.783.783,0,0,0,0-1.565Z" transform="translate(-408.029 -189.458)" fill="#dfe4f5"/>
  </g>
</svg>
