<svg id="Group_55" data-name="Group 55" xmlns="http://www.w3.org/2000/svg" xmlns:xlink="http://www.w3.org/1999/xlink" width="173.978" height="44.655" viewBox="0 0 173.978 44.655">
  <defs>
    <clipPath id="clip-path">
      <rect id="Rectangle_77" data-name="Rectangle 77" width="173.978" height="44.655" fill="none"/>
    </clipPath>
  </defs>
  <g id="Group_54" data-name="Group 54" clip-path="url(#clip-path)">
    <path id="Path_58" data-name="Path 58" d="M44.788,14q0-10.613,10.513-10.61T65.814,14q0,10.589-10.513,10.591Q44.83,24.6,44.788,14" transform="translate(76.255 5.78)" fill="#fff"/>
    <path id="Path_59" data-name="Path 59" d="M17.263.395V29.742H11.826V2.73Z" transform="translate(20.134 0.674)" fill="#fff"/>
    <path id="Path_60" data-name="Path 60" d="M14.492,18.118q0-6.628,9.359-6.629a27.523,27.523,0,0,1,5.008.411V10.483q0-2.894-5.605-2.892a24.784,24.784,0,0,0-7.019,1.024V4.308a24.788,24.788,0,0,1,7.019-1.027q11.043,0,11.043,7.1V24.829H31.545L29.2,23.31a12.4,12.4,0,0,1-5.992,1.519q-8.724,0-8.721-6.71m9.359-2.524q-3.92,0-3.921,2.462t3.284,2.462a9.358,9.358,0,0,0,5.646-1.681V16a26.077,26.077,0,0,0-5.008-.411" transform="translate(24.674 5.587)" fill="#fff"/>
    <path id="Path_61" data-name="Path 61" d="M22.855,24.829V3.281H25.9l1.8,2.708a12.489,12.489,0,0,1,7.367-2.708q4.066,0,5.767,2.954A13.514,13.514,0,0,1,48.57,3.281q6.815,0,6.813,8.186V24.829H49.946V11.264q0-3.6-3.038-3.592-2.424,0-5.07,2.789V24.829H36.4v-13.5q0-3.653-3-3.651-2.586,0-5.111,2.789V24.829Z" transform="translate(38.912 5.587)" fill="#fff"/>
    <path id="Path_62" data-name="Path 62" d="M35.925,30.517V7.819Q35.925,0,45.611,0a13.374,13.374,0,0,1,4.8.822V5.129a12.88,12.88,0,0,0-4.824-.822q-4.228,0-4.227,4.557h6.465v4.311H41.363V30.434Z" transform="translate(61.165 0.001)" fill="#fff"/>
    <path id="Path_63" data-name="Path 63" d="M47.422,2.73V29.742H41.984V.395Z" transform="translate(71.481 0.673)" fill="#fff"/>
    <path id="Path_64" data-name="Path 64" d="M53.127,24.829V3.281h4.208L58.011,7.2A10.083,10.083,0,0,1,64,4.449V8.84c-2.03.546-3.84.908-5.44,2.73V24.829Z" transform="translate(90.452 5.587)" fill="#fff"/>
    <path id="Path_65" data-name="Path 65" d="M57.047,18.118q0-6.628,9.356-6.629a27.554,27.554,0,0,1,5.011.411V10.483q0-2.894-5.605-2.892A24.784,24.784,0,0,0,58.79,8.616V4.308a24.788,24.788,0,0,1,7.019-1.027q11.043,0,11.043,7.1V24.829H74.1L71.76,23.31a12.4,12.4,0,0,1-5.992,1.519q-8.72,0-8.721-6.71M66.4,15.594q-3.92,0-3.919,2.462t3.284,2.462a9.358,9.358,0,0,0,5.646-1.681V16a26.088,26.088,0,0,0-5.011-.411" transform="translate(97.127 5.587)" fill="#fff"/>
    <path id="Path_66" data-name="Path 66" d="M0,29.672,12.41.436h5.827L30.915,29.672H25.088L21.407,21.7H12.043L13.9,17h6.07L15.191,6.017,5.562,29.672Z" transform="translate(0 0.743)" fill="#fff"/>
    <path id="Path_67" data-name="Path 67" d="M32.837,20.507l3.181-7.494h1.076l3.2,7.494H39.266l-.995-2.359H35.766l.268-.786H37.9L36.52,14.018l-2.678,6.489Z" transform="translate(55.906 22.156)" fill="#fff"/>
    <path id="Path_68" data-name="Path 68" d="M35.933,13.974A11.353,11.353,0,0,1,38.2,13.75a2.324,2.324,0,0,1,2.646,2.613q0,2.89-2.662,2.889A3.231,3.231,0,0,1,36.9,18.99v2.254h-.97Zm.97,4.157a2.823,2.823,0,0,0,1.273.284q1.715,0,1.713-2.059,0-1.8-1.7-1.8a5.81,5.81,0,0,0-1.284.127Z" transform="translate(61.178 23.412)" fill="#fff"/>
    <path id="Path_69" data-name="Path 69" d="M38.235,13.974A11.353,11.353,0,0,1,40.5,13.75a2.324,2.324,0,0,1,2.646,2.613q0,2.89-2.662,2.889a3.231,3.231,0,0,1-1.278-.262v2.254h-.97Zm.97,4.157a2.823,2.823,0,0,0,1.273.284q1.715,0,1.713-2.059,0-1.8-1.7-1.8a5.81,5.81,0,0,0-1.284.127Z" transform="translate(65.098 23.412)" fill="#fff"/>
    <path id="Path_70" data-name="Path 70" d="M40.537,19.252v-5.5h.654l.173.7a2.4,2.4,0,0,1,1.74-.7v.805a2.025,2.025,0,0,0-1.6.7v4Z" transform="translate(69.017 23.412)" fill="#fff"/>
    <path id="Path_71" data-name="Path 71" d="M46.424,16.78H42.719q0,1.686,2.127,1.686a6.828,6.828,0,0,0,1.457-.157V19.1a8.481,8.481,0,0,1-1.77.157,2.473,2.473,0,0,1-2.784-2.813,2.353,2.353,0,0,1,2.638-2.689q2.526,0,2.038,3.03m-3.705-.808h2.819q.073-1.447-1.308-1.446a1.36,1.36,0,0,0-1.511,1.446" transform="translate(71.081 23.412)" fill="#fff"/>
    <path id="Path_72" data-name="Path 72" d="M48.4,19.095a6.483,6.483,0,0,1-1.467.157q-2.988,0-2.986-2.857,0-2.647,2.986-2.646a6.482,6.482,0,0,1,1.467.157v.786a6,6,0,0,0-1.362-.157q-2.124,0-2.124,1.859a1.854,1.854,0,0,0,2.124,2.07,6,6,0,0,0,1.362-.157Z" transform="translate(74.819 23.41)" fill="#fff"/>
    <path id="Path_73" data-name="Path 73" d="M47,13.8h-.97v-.786H47Zm0,6.708h-.97V15H47Z" transform="translate(78.368 22.157)" fill="#fff"/>
    <path id="Path_74" data-name="Path 74" d="M46.873,17.541q0-1.695,2.232-1.695a8.56,8.56,0,0,1,1.435.105v-.519q0-.9-1.481-.9a6.211,6.211,0,0,0-1.74.262v-.786a6.211,6.211,0,0,1,1.74-.262q2.453,0,2.451,1.762v3.743h-.492l-.389-.389a3.485,3.485,0,0,1-1.686.389q-2.072,0-2.07-1.713m2.232-.908c-.843,0-1.262.3-1.262.892,0,.627.365.943,1.1.943a2.665,2.665,0,0,0,1.6-.43v-1.3a8.164,8.164,0,0,0-1.435-.105" transform="translate(79.805 23.41)" fill="#fff"/>
    <path id="Path_75" data-name="Path 75" d="M49.171,13.42h.608l.211.892h1.278V15.1H50.141v3.159q0,.77.665.77h.462v.786h-.713q-1.382,0-1.384-1.484Z" transform="translate(83.717 22.85)" fill="#fff"/>
    <path id="Path_76" data-name="Path 76" d="M51.4,13.8h-.97v-.786h.97Zm0,6.708h-.97V15h.97Z" transform="translate(85.862 22.157)" fill="#fff"/>
    <path id="Path_77" data-name="Path 77" d="M51.372,19.252v-5.5h.654l.173.7a3.469,3.469,0,0,1,2.013-.7q1.9,0,1.9,2.049v3.454h-.97v-3.47a1.082,1.082,0,0,0-1.222-1.227,2.3,2.3,0,0,0-1.581.7v4Z" transform="translate(87.464 23.412)" fill="#fff"/>
    <path id="Path_78" data-name="Path 78" d="M58.523,19.252q0,1.99-2.532,1.992a5.664,5.664,0,0,1-1.8-.262V20.2A5.805,5.805,0,0,0,56,20.458q1.553,0,1.551-1.205V18.99a3.368,3.368,0,0,1-1.332.262q-2.607,0-2.608-2.784a2.417,2.417,0,0,1,2.751-2.719,10.3,10.3,0,0,1,2.159.224Zm-.97-4.57a5.124,5.124,0,0,0-1.232-.127q-1.755,0-1.754,1.9,0,1.958,1.659,1.957a2.951,2.951,0,0,0,1.327-.284Z" transform="translate(91.278 23.412)" fill="#fff"/>
    <path id="Path_79" data-name="Path 79" d="M57.921,13.012V19.72h3.921v.786H56.951V13.012Z" transform="translate(96.963 22.156)" fill="#fff"/>
    <rect id="Rectangle_76" data-name="Rectangle 76" width="0.97" height="7.494" transform="translate(160.114 35.169)" fill="#fff"/>
    <path id="Path_80" data-name="Path 80" d="M65.086,13.012V13.8h-3.93v2.516H64.9V17.1H61.156v3.405h-.97V13.012Z" transform="translate(102.471 22.156)" fill="#fff"/>
    <path id="Path_81" data-name="Path 81" d="M67.432,13.012V13.8H63.5v2.516h3.746V17.1H63.5V19.72h4.008v.786H62.533V13.012Z" transform="translate(106.466 22.156)" fill="#fff"/>
  </g>
</svg>
