<svg xmlns="http://www.w3.org/2000/svg" width="22" height="19" viewBox="0 0 22 19">
  <g id="Group_581" data-name="Group 581" transform="translate(1715 -10675)">
    <g id="Group_580" data-name="Group 580" transform="translate(-1914 9969)">
      <g id="Group_580-2" data-name="Group 580" transform="translate(2000.5 -9951)">
        <path id="Rectangle_253" data-name="Rectangle 253" d="M1,0H17a1,1,0,0,1,1,1V5a3,3,0,0,1-3,3H3A3,3,0,0,1,0,5V1A1,1,0,0,1,1,0Z" transform="translate(-1799.5 10668)" fill="#0f0038"/>
        <path id="Line_24" data-name="Line 24" d="M20,1H0A1,1,0,0,1-1,0,1,1,0,0,1,0-1H20a1,1,0,0,1,1,1A1,1,0,0,1,20,1Z" transform="translate(-1800.5 10666)" fill="#0f0038"/>
        <path id="Rectangle_254" data-name="Rectangle 254" d="M3,2A1,1,0,0,0,2,3V8H16V3a1,1,0,0,0-1-1H3M3,0H15a3,3,0,0,1,3,3V9a1,1,0,0,1-1,1H1A1,1,0,0,1,0,9V3A3,3,0,0,1,3,0Z" transform="translate(-1799.5 10657)" fill="#0f0038"/>
      </g>
      <circle id="Ellipse_165" data-name="Ellipse 165" cx="1.5" cy="1.5" r="1.5" transform="translate(205 710)" fill="#0f0038"/>
    </g>
  </g>
</svg>
