<svg id="Group_59" data-name="Group 59" xmlns="http://www.w3.org/2000/svg" xmlns:xlink="http://www.w3.org/1999/xlink" width="172.274" height="29.295" viewBox="0 0 172.274 29.295">
  <defs>
    <clipPath id="clip-path">
      <rect id="Rectangle_84" data-name="Rectangle 84" width="172.274" height="29.295" fill="none"/>
    </clipPath>
  </defs>
  <g id="Group_58" data-name="Group 58" transform="translate(0 0)">
    <g id="Group_57" data-name="Group 57" transform="translate(0 0)" clip-path="url(#clip-path)">
      <path id="Path_82" data-name="Path 82" d="M0,.289H6.041A5.779,5.779,0,0,1,10.813,2.4a7.582,7.582,0,0,1,1.514,4.873,9.407,9.407,0,0,1-.895,4.146A5.529,5.529,0,0,1,6.021,14.69H0ZM5.64,13.024a5.68,5.68,0,0,0,1.67-.206,3.668,3.668,0,0,0,1.912-1.471,5.917,5.917,0,0,0,.854-2.235,8.22,8.22,0,0,0,.152-1.51A6.888,6.888,0,0,0,9.135,3.447,4.073,4.073,0,0,0,5.62,1.967H2.067V13.024Z" transform="translate(0 0.102)" fill="#fff"/>
      <rect id="Rectangle_78" data-name="Rectangle 78" width="2.067" height="14.401" transform="translate(16.643 0.392)" fill="#fff"/>
      <path id="Path_83" data-name="Path 83" d="M27.25.8a5.118,5.118,0,0,1,2.718,3.951H27.941a3.5,3.5,0,0,0-1.5-2.3,5.263,5.263,0,0,0-2.871-.721,4.554,4.554,0,0,0-3.462,1.5A6.315,6.315,0,0,0,18.7,7.7a7,7,0,0,0,1.16,4.181,4.337,4.337,0,0,0,3.782,1.612,4.913,4.913,0,0,0,3.322-1.132A4.66,4.66,0,0,0,28.31,8.7H23.577V7.083h6.639v7.7H28.9L28.4,12.935a7.648,7.648,0,0,1-1.811,1.51,6.978,6.978,0,0,1-3.372.727,6.7,6.7,0,0,1-4.545-1.658,7.717,7.717,0,0,1-2.074-5.7A8.017,8.017,0,0,1,18.63,2.054,6.551,6.551,0,0,1,23.619.015,7.871,7.871,0,0,1,27.25.8" transform="translate(5.901 0.005)" fill="#fff"/>
      <rect id="Rectangle_79" data-name="Rectangle 79" width="2.067" height="14.401" transform="translate(40.997 0.392)" fill="#fff"/>
      <path id="Path_84" data-name="Path 84" d="M46.323.289V2.005H41.229V14.69H39.162V2.005H34.068V.289Z" transform="translate(12.108 0.102)" fill="#fff"/>
      <path id="Path_85" data-name="Path 85" d="M48.863.289h2.315l5.484,14.4H54.419l-1.533-4.313H46.908L45.273,14.69h-2.1Zm3.365,8.5L49.934,2.428l-2.44,6.361Z" transform="translate(15.344 0.102)" fill="#fff"/>
      <path id="Path_86" data-name="Path 86" d="M55.277.289h2.048V12.974h7.582V14.69h-9.63Z" transform="translate(19.646 0.102)" fill="#fff"/>
      <rect id="Rectangle_80" data-name="Rectangle 80" width="2.067" height="14.401" transform="translate(88.161 0.392)" fill="#fff"/>
      <path id="Path_87" data-name="Path 87" d="M68.971,13.073,78.266,2H69.65V.289H80.908V1.967L71.557,12.975h9.351V14.69H68.971Z" transform="translate(24.513 0.102)" fill="#fff"/>
      <path id="Path_88" data-name="Path 88" d="M84.808.289h2.315l5.484,14.4H90.364l-1.533-4.313H82.853L81.217,14.69h-2.1Zm3.364,8.5L85.879,2.428l-2.44,6.361Z" transform="translate(28.119 0.102)" fill="#fff"/>
      <path id="Path_89" data-name="Path 89" d="M101.4.289V2.005H96.3V14.69H94.235V2.005H89.142V.289Z" transform="translate(31.682 0.102)" fill="#fff"/>
      <rect id="Rectangle_81" data-name="Rectangle 81" width="2.067" height="14.401" transform="translate(136.478 0.392)" fill="#fff"/>
      <path id="Path_90" data-name="Path 90" d="M118.1,2.451a7.676,7.676,0,0,1,1.5,4.892,8.274,8.274,0,0,1-1.717,5.362,6.954,6.954,0,0,1-5.752,2.51,7.037,7.037,0,0,1-5.484-2.2,8.027,8.027,0,0,1-1.781-5.353,8.225,8.225,0,0,1,1.522-5A6.715,6.715,0,0,1,112.175,0q4,0,5.927,2.451M116.3,11.629a7.59,7.59,0,0,0,1.209-4.253,5.882,5.882,0,0,0-1.395-4.091A4.863,4.863,0,0,0,112.3,1.735a5.081,5.081,0,0,0-3.828,1.536A6.274,6.274,0,0,0,106.989,7.8a6.4,6.4,0,0,0,1.27,4.036,4.884,4.884,0,0,0,4.122,1.643,4.33,4.33,0,0,0,3.916-1.849" transform="translate(37.272 0)" fill="#fff"/>
      <path id="Path_91" data-name="Path 91" d="M118.317.289h2.411l7.539,11.636V.289h1.954v14.4h-2.3l-7.65-11.621V14.69h-1.955Z" transform="translate(42.052 0.102)" fill="#fff"/>
      <path id="Path_92" data-name="Path 92" d="M16.085,15.589a2.373,2.373,0,0,1,.821,1.548h-.943a1.852,1.852,0,0,0-.628-1.044,2.04,2.04,0,0,0-1.32-.384,2.15,2.15,0,0,0-1.674.706,3.164,3.164,0,0,0-.637,2.169,3.089,3.089,0,0,0,.575,1.941A2.04,2.04,0,0,0,14,21.268a1.828,1.828,0,0,0,1.6-.783,2.9,2.9,0,0,0,.435-1.083h.943a2.93,2.93,0,0,1-3.1,2.677,3.064,3.064,0,0,1-2.067-.718,3.672,3.672,0,0,1-1.1-2.934,3.655,3.655,0,0,1,.827-2.47A3.063,3.063,0,0,1,14,14.907a2.96,2.96,0,0,1,2.081.682" transform="translate(3.807 5.298)" fill="#fff"/>
      <path id="Path_93" data-name="Path 93" d="M20.4,16.936a2.437,2.437,0,0,1,.691,1.88,3.134,3.134,0,0,1-.609,1.982,2.245,2.245,0,0,1-1.889.782,2.173,2.173,0,0,1-1.694-.693,2.664,2.664,0,0,1-.628-1.858,2.871,2.871,0,0,1,.663-1.99,2.256,2.256,0,0,1,1.776-.74,2.4,2.4,0,0,1,1.69.637m-.544,3.3a3.035,3.035,0,0,0,.32-1.395,2.377,2.377,0,0,0-.232-1.129,1.305,1.305,0,0,0-1.258-.686,1.252,1.252,0,0,0-1.155.584,2.609,2.609,0,0,0-.361,1.406,2.28,2.28,0,0,0,.361,1.319,1.288,1.288,0,0,0,1.144.527,1.2,1.2,0,0,0,1.181-.626" transform="translate(5.784 5.792)" fill="#fff"/>
      <path id="Path_94" data-name="Path 94" d="M20.989,16.433h.831v.7a2.284,2.284,0,0,1,.783-.625,2.165,2.165,0,0,1,.919-.191,1.539,1.539,0,0,1,1.5.737,2.524,2.524,0,0,1,.213,1.152V21.4h-.889V18.268a1.638,1.638,0,0,0-.142-.733.861.861,0,0,0-.846-.462,1.744,1.744,0,0,0-.511.061,1.309,1.309,0,0,0-.632.407,1.22,1.22,0,0,0-.285.507,3.291,3.291,0,0,0-.065.748v2.6h-.876Z" transform="translate(7.46 5.801)" fill="#fff"/>
      <path id="Path_95" data-name="Path 95" d="M25.443,16.433h.831v.7a2.284,2.284,0,0,1,.783-.625,2.165,2.165,0,0,1,.919-.191,1.539,1.539,0,0,1,1.5.737,2.524,2.524,0,0,1,.213,1.152V21.4H28.8V18.268a1.638,1.638,0,0,0-.142-.733.861.861,0,0,0-.846-.462,1.744,1.744,0,0,0-.511.061,1.309,1.309,0,0,0-.632.407,1.221,1.221,0,0,0-.285.507,3.291,3.291,0,0,0-.065.748v2.6h-.876Z" transform="translate(9.043 5.801)" fill="#fff"/>
      <path id="Path_96" data-name="Path 96" d="M33.191,16.57a1.958,1.958,0,0,1,.787.641,2.141,2.141,0,0,1,.347.877,5.36,5.36,0,0,1,.079,1.092H30.616a2.08,2.08,0,0,0,.373,1.216,1.264,1.264,0,0,0,1.075.457,1.37,1.37,0,0,0,1.407-1.014h.861a1.651,1.651,0,0,1-.226.609,2.206,2.206,0,0,1-.428.549,2.056,2.056,0,0,1-.98.5,3.127,3.127,0,0,1-.709.075,2.229,2.229,0,0,1-1.639-.674,2.562,2.562,0,0,1-.671-1.889,2.77,2.77,0,0,1,.676-1.94,2.269,2.269,0,0,1,1.767-.747,2.443,2.443,0,0,1,1.069.248m.313,1.948a2.091,2.091,0,0,0-.247-.866,1.267,1.267,0,0,0-1.19-.6,1.346,1.346,0,0,0-1,.415,1.534,1.534,0,0,0-.428,1.053Z" transform="translate(10.548 5.801)" fill="#fff"/>
      <path id="Path_97" data-name="Path 97" d="M37.883,16.707a1.918,1.918,0,0,1,.664,1.4H37.7a1.465,1.465,0,0,0-.354-.76,1.155,1.155,0,0,0-.892-.3,1.229,1.229,0,0,0-1.2.778,2.951,2.951,0,0,0-.233,1.244,2.25,2.25,0,0,0,.331,1.254,1.149,1.149,0,0,0,1.04.51,1.173,1.173,0,0,0,.863-.316,1.71,1.71,0,0,0,.441-.866h.851a2.142,2.142,0,0,1-.729,1.444,2.353,2.353,0,0,1-1.492.455,2.039,2.039,0,0,1-1.631-.71,2.646,2.646,0,0,1-.607-1.777,2.9,2.9,0,0,1,.666-2.034,2.207,2.207,0,0,1,1.7-.726,2.343,2.343,0,0,1,1.433.408" transform="translate(12.115 5.792)" fill="#fff"/>
      <path id="Path_98" data-name="Path 98" d="M38.706,15.383h.885v1.384h.831v.682h-.831v3.238a.347.347,0,0,0,.183.348.864.864,0,0,0,.342.05l.136,0q.073,0,.171-.016v.664a2.165,2.165,0,0,1-.313.06,3.218,3.218,0,0,1-.354.018.977.977,0,0,1-.831-.3,1.284,1.284,0,0,1-.218-.778V17.449H38v-.682h.708Z" transform="translate(13.505 5.467)" fill="#fff"/>
      <path id="Path_99" data-name="Path 99" d="M40.8,15.044h.889v.945H40.8Zm0,1.868h.889v4.939H40.8Z" transform="translate(14.501 5.346)" fill="#fff"/>
      <path id="Path_100" data-name="Path 100" d="M42.8,16.433h.831v.7a2.284,2.284,0,0,1,.783-.625,2.165,2.165,0,0,1,.919-.191,1.539,1.539,0,0,1,1.5.737,2.524,2.524,0,0,1,.213,1.152V21.4h-.889V18.268a1.638,1.638,0,0,0-.142-.733.861.861,0,0,0-.846-.462,1.744,1.744,0,0,0-.511.061,1.309,1.309,0,0,0-.632.407,1.221,1.221,0,0,0-.285.507,3.291,3.291,0,0,0-.065.748v2.6H42.8Z" transform="translate(15.212 5.801)" fill="#fff"/>
      <path id="Path_101" data-name="Path 101" d="M50.239,16.627a2.284,2.284,0,0,1,.5.472v-.625h.808v4.512a3.2,3.2,0,0,1-.291,1.491,2.114,2.114,0,0,1-2.051,1.01,2.608,2.608,0,0,1-1.41-.358,1.4,1.4,0,0,1-.641-1.124h.892a.912.912,0,0,0,.251.514,1.316,1.316,0,0,0,.928.279,1.292,1.292,0,0,0,1.311-.676,3.681,3.681,0,0,0,.169-1.423,1.682,1.682,0,0,1-.629.565,2.169,2.169,0,0,1-.975.184,2.129,2.129,0,0,1-1.475-.571A2.453,2.453,0,0,1,47,18.984a2.786,2.786,0,0,1,.637-1.945,2,2,0,0,1,1.538-.7,1.943,1.943,0,0,1,1.065.287m.107.893a1.292,1.292,0,0,0-1.011-.445,1.249,1.249,0,0,0-1.258.824,3.114,3.114,0,0,0-.179,1.155,1.981,1.981,0,0,0,.355,1.275,1.167,1.167,0,0,0,.956.438,1.345,1.345,0,0,0,1.322-.811,2.531,2.531,0,0,0,.213-1.069,2.01,2.01,0,0,0-.4-1.368" transform="translate(16.704 5.807)" fill="#fff"/>
      <path id="Path_102" data-name="Path 102" d="M54.06,16.46h.855v.657a2.118,2.118,0,0,1,.576-.525,1.936,1.936,0,0,1,1.044-.278,2.012,2.012,0,0,1,1.507.648,2.561,2.561,0,0,1,.618,1.845,2.76,2.76,0,0,1-.893,2.316,2.084,2.084,0,0,1-1.317.441,1.855,1.855,0,0,1-.991-.245,2.231,2.231,0,0,1-.523-.477v2.533H54.06Zm3.294,3.889a2.242,2.242,0,0,0,.408-1.461,2.6,2.6,0,0,0-.182-1.019,1.346,1.346,0,0,0-2.5.046,3.265,3.265,0,0,0-.182,1.176,2.378,2.378,0,0,0,.182.977,1.247,1.247,0,0,0,1.25.769,1.277,1.277,0,0,0,1.022-.488" transform="translate(19.214 5.798)" fill="#fff"/>
      <path id="Path_103" data-name="Path 103" d="M61.862,16.57a1.958,1.958,0,0,1,.787.641,2.141,2.141,0,0,1,.347.877,5.36,5.36,0,0,1,.079,1.092H59.287A2.08,2.08,0,0,0,59.66,20.4a1.264,1.264,0,0,0,1.075.457,1.37,1.37,0,0,0,1.407-1.014H63a1.652,1.652,0,0,1-.226.609,2.206,2.206,0,0,1-.428.549,2.056,2.056,0,0,1-.98.5,3.127,3.127,0,0,1-.709.075A2.229,2.229,0,0,1,59.02,20.9a2.562,2.562,0,0,1-.671-1.889,2.77,2.77,0,0,1,.676-1.94,2.269,2.269,0,0,1,1.767-.747,2.442,2.442,0,0,1,1.069.248m.313,1.948a2.091,2.091,0,0,0-.247-.866,1.267,1.267,0,0,0-1.19-.6,1.346,1.346,0,0,0-1,.415,1.534,1.534,0,0,0-.428,1.053Z" transform="translate(20.738 5.801)" fill="#fff"/>
      <path id="Path_104" data-name="Path 104" d="M66.888,16.936a2.437,2.437,0,0,1,.691,1.88A3.134,3.134,0,0,1,66.97,20.8a2.245,2.245,0,0,1-1.889.782,2.173,2.173,0,0,1-1.694-.693,2.664,2.664,0,0,1-.628-1.858,2.871,2.871,0,0,1,.663-1.99A2.256,2.256,0,0,1,65.2,16.3a2.4,2.4,0,0,1,1.69.637m-.544,3.3a3.035,3.035,0,0,0,.32-1.395,2.377,2.377,0,0,0-.232-1.129,1.305,1.305,0,0,0-1.258-.686,1.252,1.252,0,0,0-1.155.584,2.609,2.609,0,0,0-.361,1.406,2.28,2.28,0,0,0,.361,1.319,1.288,1.288,0,0,0,1.144.527,1.2,1.2,0,0,0,1.181-.626" transform="translate(22.305 5.792)" fill="#fff"/>
      <path id="Path_105" data-name="Path 105" d="M67.421,16.46h.855v.657a2.118,2.118,0,0,1,.576-.525,1.936,1.936,0,0,1,1.044-.278,2.012,2.012,0,0,1,1.507.648,2.561,2.561,0,0,1,.618,1.845,2.76,2.76,0,0,1-.893,2.316,2.084,2.084,0,0,1-1.317.441,1.855,1.855,0,0,1-.991-.245,2.23,2.23,0,0,1-.523-.477v2.533h-.876Zm3.294,3.889a2.242,2.242,0,0,0,.408-1.461,2.6,2.6,0,0,0-.182-1.019,1.346,1.346,0,0,0-2.5.046,3.265,3.265,0,0,0-.182,1.176,2.378,2.378,0,0,0,.182.977,1.247,1.247,0,0,0,1.25.769,1.277,1.277,0,0,0,1.022-.488" transform="translate(23.962 5.798)" fill="#fff"/>
      <rect id="Rectangle_82" data-name="Rectangle 82" width="0.876" height="6.806" transform="translate(97.515 20.391)" fill="#fff"/>
      <path id="Path_106" data-name="Path 106" d="M77.222,16.57a1.958,1.958,0,0,1,.787.641,2.141,2.141,0,0,1,.347.877,5.361,5.361,0,0,1,.079,1.092H74.647A2.08,2.08,0,0,0,75.02,20.4a1.264,1.264,0,0,0,1.075.457A1.37,1.37,0,0,0,77.5,19.839h.861a1.651,1.651,0,0,1-.226.609,2.206,2.206,0,0,1-.428.549,2.056,2.056,0,0,1-.98.5,3.126,3.126,0,0,1-.709.075A2.229,2.229,0,0,1,74.38,20.9a2.562,2.562,0,0,1-.671-1.889,2.77,2.77,0,0,1,.676-1.94,2.269,2.269,0,0,1,1.767-.747,2.443,2.443,0,0,1,1.069.248m.313,1.948a2.091,2.091,0,0,0-.247-.866,1.267,1.267,0,0,0-1.19-.6,1.346,1.346,0,0,0-1,.415,1.534,1.534,0,0,0-.428,1.053Z" transform="translate(26.197 5.801)" fill="#fff"/>
      <path id="Path_107" data-name="Path 107" d="M81.1,15.383h.885v1.384h.832v.682h-.832v3.238a.348.348,0,0,0,.184.348.859.859,0,0,0,.342.05l.136,0q.073,0,.171-.016v.664a2.149,2.149,0,0,1-.314.06,3.176,3.176,0,0,1-.352.018.977.977,0,0,1-.831-.3,1.284,1.284,0,0,1-.22-.778V17.449H80.4v-.682H81.1Z" transform="translate(28.575 5.467)" fill="#fff"/>
      <path id="Path_108" data-name="Path 108" d="M83.2,15.027h.876v2.539a2.488,2.488,0,0,1,.56-.529,1.966,1.966,0,0,1,1.055-.264,1.58,1.58,0,0,1,1.537.756,2.474,2.474,0,0,1,.218,1.143v3.184h-.9V18.727a1.648,1.648,0,0,0-.148-.8.943.943,0,0,0-.895-.408,1.531,1.531,0,0,0-.985.356,1.662,1.662,0,0,0-.443,1.349v2.631H83.2Z" transform="translate(29.57 5.34)" fill="#fff"/>
      <path id="Path_109" data-name="Path 109" d="M87.669,16.433H88.5v.858a1.878,1.878,0,0,1,.5-.609,1.333,1.333,0,0,1,.919-.361c.018,0,.043,0,.084.005l.2.019v.88a1.217,1.217,0,0,0-.142-.019c-.045,0-.092-.005-.144-.005a1.278,1.278,0,0,0-1.017.407,1.372,1.372,0,0,0-.355.934V21.4h-.876Z" transform="translate(31.159 5.801)" fill="#fff"/>
      <path id="Path_110" data-name="Path 110" d="M94.333,16.936a2.437,2.437,0,0,1,.691,1.88,3.134,3.134,0,0,1-.609,1.982,2.245,2.245,0,0,1-1.889.782,2.173,2.173,0,0,1-1.694-.693,2.664,2.664,0,0,1-.628-1.858,2.871,2.871,0,0,1,.663-1.99,2.256,2.256,0,0,1,1.776-.74,2.4,2.4,0,0,1,1.69.637m-.544,3.3a3.035,3.035,0,0,0,.32-1.395,2.377,2.377,0,0,0-.232-1.129,1.305,1.305,0,0,0-1.258-.686,1.252,1.252,0,0,0-1.155.584,2.609,2.609,0,0,0-.361,1.406,2.28,2.28,0,0,0,.361,1.319,1.288,1.288,0,0,0,1.144.527,1.2,1.2,0,0,0,1.181-.626" transform="translate(32.06 5.792)" fill="#fff"/>
      <path id="Path_111" data-name="Path 111" d="M95.8,16.4v3.3a1.36,1.36,0,0,0,.123.621.865.865,0,0,0,.848.445,1.2,1.2,0,0,0,1.212-.778,3.037,3.037,0,0,0,.175-1.145V16.4h.876v4.962h-.827l.009-.732a1.7,1.7,0,0,1-.415.477,1.868,1.868,0,0,1-1.193.389,1.554,1.554,0,0,1-1.49-.709,2.069,2.069,0,0,1-.214-1.015V16.4Z" transform="translate(33.73 5.83)" fill="#fff"/>
      <path id="Path_112" data-name="Path 112" d="M102.359,16.627a2.284,2.284,0,0,1,.5.472v-.625h.808v4.512a3.2,3.2,0,0,1-.291,1.491,2.114,2.114,0,0,1-2.051,1.01,2.608,2.608,0,0,1-1.41-.358,1.4,1.4,0,0,1-.641-1.124h.892a.912.912,0,0,0,.251.514,1.316,1.316,0,0,0,.928.279,1.292,1.292,0,0,0,1.311-.676,3.682,3.682,0,0,0,.169-1.423,1.682,1.682,0,0,1-.629.565,2.168,2.168,0,0,1-.975.184,2.129,2.129,0,0,1-1.475-.571,2.453,2.453,0,0,1-.633-1.894,2.786,2.786,0,0,1,.637-1.945,2,2,0,0,1,1.538-.7,1.943,1.943,0,0,1,1.065.287m.107.893a1.292,1.292,0,0,0-1.011-.445,1.249,1.249,0,0,0-1.258.824,3.114,3.114,0,0,0-.179,1.155,1.981,1.981,0,0,0,.355,1.275,1.167,1.167,0,0,0,.956.438,1.345,1.345,0,0,0,1.322-.811,2.531,2.531,0,0,0,.213-1.069,2.01,2.01,0,0,0-.4-1.368" transform="translate(35.228 5.807)" fill="#fff"/>
      <path id="Path_113" data-name="Path 113" d="M103.826,15.027h.876v2.539a2.489,2.489,0,0,1,.56-.529,1.966,1.966,0,0,1,1.055-.264,1.58,1.58,0,0,1,1.537.756,2.474,2.474,0,0,1,.218,1.143v3.184h-.9V18.727a1.648,1.648,0,0,0-.148-.8.943.943,0,0,0-.895-.408,1.531,1.531,0,0,0-.985.356,1.662,1.662,0,0,0-.443,1.349v2.631h-.876Z" transform="translate(36.901 5.34)" fill="#fff"/>
      <path id="Path_114" data-name="Path 114" d="M112.609,15.044H113.7l2.593,6.807h-1.06l-.726-2.039h-2.823l-.774,2.039h-.992Zm1.59,4.017-1.084-3.008-1.152,3.008Z" transform="translate(39.067 5.346)" fill="#fff"/>
      <rect id="Rectangle_83" data-name="Rectangle 83" width="0.979" height="6.806" transform="translate(156.958 20.391)" fill="#fff"/>
    </g>
  </g>
</svg>
