<svg xmlns="http://www.w3.org/2000/svg" width="14" height="15.5" viewBox="0 0 14 15.5">
  <g id="Group_144" data-name="Group 144" transform="translate(-122 -471)">
    <g id="Rectangle_103" data-name="Rectangle 103" transform="translate(123 472)" fill="none" stroke="#5a9aed" stroke-linecap="round" stroke-linejoin="round" stroke-width="0.5">
      <rect width="11" height="14" rx="1" stroke="none"/>
      <rect x="-0.25" y="-0.25" width="11.5" height="14.5" rx="1.25" fill="none"/>
    </g>
    <g id="Rectangle_104" data-name="Rectangle 104" transform="translate(134 473)" fill="none" stroke="#5a9aed" stroke-width="0.5">
      <path d="M0,0H1A1,1,0,0,1,2,1V3A1,1,0,0,1,1,4H0A0,0,0,0,1,0,4V0A0,0,0,0,1,0,0Z" stroke="none"/>
      <path d="M.25.25H1A.75.75,0,0,1,1.75,1V3A.75.75,0,0,1,1,3.75H.25a0,0,0,0,1,0,0V.25A0,0,0,0,1,.25.25Z" fill="none"/>
    </g>
    <g id="Rectangle_105" data-name="Rectangle 105" transform="translate(134 480)" fill="none" stroke="#5a9aed" stroke-width="0.5">
      <path d="M0,0H1A1,1,0,0,1,2,1V3A1,1,0,0,1,1,4H0A0,0,0,0,1,0,4V0A0,0,0,0,1,0,0Z" stroke="none"/>
      <path d="M.25.25H1A.75.75,0,0,1,1.75,1V3A.75.75,0,0,1,1,3.75H.25a0,0,0,0,1,0,0V.25A0,0,0,0,1,.25.25Z" fill="none"/>
    </g>
    <rect id="Rectangle_110" data-name="Rectangle 110" width="11" height="14" rx="1" transform="translate(122 471)" fill="#85cbfd"/>
    <path id="Icon_material-person-outline" data-name="Icon material-person-outline" d="M8.289,6.544a.6.6,0,1,1-.6.6.6.6,0,0,1,.6-.6m0,2.575c.85,0,1.746.418,1.746.6v1.151H6.544V9.72c0-.183.9-.6,1.746-.6M8.289,6A1.145,1.145,0,1,0,9.434,7.145,1.144,1.144,0,0,0,8.289,6Zm0,2.575C7.525,8.575,6,8.959,6,9.72v1.694h4.579V9.72C10.579,8.959,9.053,8.575,8.289,8.575Z" transform="translate(119.027 469.293)" fill="#fff"/>
  </g>
</svg>
