<svg xmlns="http://www.w3.org/2000/svg" xmlns:xlink="http://www.w3.org/1999/xlink" width="68" height="68" viewBox="0 0 68 68">
  <defs>
    <linearGradient id="linear-gradient" x1="0.5" x2="0.5" y2="1" gradientUnits="objectBoundingBox">
      <stop offset="0" stop-color="#6ca0f9"/>
      <stop offset="1" stop-color="#344dea"/>
    </linearGradient>
    <filter id="Ellipse_2" x="0" y="0" width="68" height="68" filterUnits="userSpaceOnUse">
      <feOffset dy="3" input="SourceAlpha"/>
      <feGaussianBlur stdDeviation="3" result="blur"/>
      <feFlood flood-color="#98b4d9" flood-opacity="0.51"/>
      <feComposite operator="in" in2="blur"/>
      <feComposite in="SourceGraphic"/>
    </filter>
  </defs>
  <g id="Group_491" data-name="Group 491" transform="translate(-297 -202)">
    <g id="Component_5_17" data-name="Component 5 – 17" transform="translate(306 208)">
      <g transform="matrix(1, 0, 0, 1, -9, -6)" filter="url(#Ellipse_2)">
        <circle id="Ellipse_2-2" data-name="Ellipse 2" cx="25" cy="25" r="25" transform="translate(9 6)" fill="url(#linear-gradient)"/>
      </g>
    </g>
    <path id="Icon_material-exit-to-app" data-name="Icon material-exit-to-app" d="M13.953,21.287l1.88,1.88L22.5,16.5,15.833,9.833l-1.88,1.88,3.44,3.453H4.5v2.667H17.393ZM25.833,4.5H7.167A2.666,2.666,0,0,0,4.5,7.167V12.5H7.167V7.167H25.833V25.833H7.167V20.5H4.5v5.333A2.666,2.666,0,0,0,7.167,28.5H25.833A2.675,2.675,0,0,0,28.5,25.833V7.167A2.675,2.675,0,0,0,25.833,4.5Z" transform="translate(314.5 216.5)" fill="#fff" stroke="#fff" stroke-width="1"/>
  </g>
</svg>
