<svg xmlns="http://www.w3.org/2000/svg" width="21.7" height="15.75" viewBox="0 0 21.7 15.75">
  <g id="Group_153" data-name="Group 153" transform="translate(-37.3 -311.25)">
    <g id="Group_152" data-name="Group 152">
      <g id="Rectangle_109" data-name="Rectangle 109" transform="translate(38 312)" fill="#fff" stroke="#5a9aed" stroke-width="0.5">
        <rect width="21" height="15" rx="2" stroke="none"/>
        <rect x="0.25" y="0.25" width="20.5" height="14.5" rx="1.75" fill="none"/>
      </g>
      <path id="Icon_awesome-money-check-alt" data-name="Icon awesome-money-check-alt" d="M19.407,2.25H1.021A1.022,1.022,0,0,0,0,3.271V15.528A1.022,1.022,0,0,0,1.021,16.55H19.407a1.022,1.022,0,0,0,1.021-1.021V3.271A1.022,1.022,0,0,0,19.407,2.25ZM5.618,11.694v.515a.255.255,0,0,1-.255.255H4.852a.255.255,0,0,1-.255-.255v-.52a1.828,1.828,0,0,1-1-.362.256.256,0,0,1-.018-.388l.375-.358a.262.262,0,0,1,.323-.023.768.768,0,0,0,.409.119h.9a.4.4,0,0,0,.377-.421.417.417,0,0,0-.28-.406L4.242,9.418A1.445,1.445,0,0,1,3.234,8.033,1.421,1.421,0,0,1,4.6,6.595V6.08a.255.255,0,0,1,.255-.255h.511a.255.255,0,0,1,.255.255V6.6a1.825,1.825,0,0,1,1,.362.256.256,0,0,1,.018.388l-.375.358a.262.262,0,0,1-.323.023.766.766,0,0,0-.409-.119h-.9a.4.4,0,0,0-.377.421.417.417,0,0,0,.28.406l1.436.431A1.445,1.445,0,0,1,6.98,10.256,1.421,1.421,0,0,1,5.618,11.694Zm7.661-.507a.255.255,0,0,1-.255.255H9.448a.255.255,0,0,1-.255-.255v-.511a.255.255,0,0,1,.255-.255h3.575a.255.255,0,0,1,.255.255Zm5.107,0a.255.255,0,0,1-.255.255H15.577a.255.255,0,0,1-.255-.255v-.511a.255.255,0,0,1,.255-.255H18.13a.255.255,0,0,1,.255.255Zm0-3.064a.255.255,0,0,1-.255.255H9.448a.255.255,0,0,1-.255-.255V7.612a.255.255,0,0,1,.255-.255H18.13a.255.255,0,0,1,.255.255Z" transform="translate(37.3 309)" fill="#85cbfd"/>
    </g>
  </g>
</svg>
