<svg xmlns="http://www.w3.org/2000/svg" width="15.7" height="16.2" viewBox="0 0 15.7 16.2">
  <g id="Group_156" data-name="Group 156" transform="translate(-65.8 -311.8)">
    <g id="Rectangle_115" data-name="Rectangle 115" transform="translate(66 312)" fill="#fff" stroke="#5a9aed" stroke-width="0.5">
      <rect width="15.5" height="16" rx="2" stroke="none"/>
      <rect x="0.25" y="0.25" width="15" height="15.5" rx="1.75" fill="none"/>
    </g>
    <rect id="Rectangle_116" data-name="Rectangle 116" width="14" height="14" rx="1" transform="translate(65.8 311.8)" fill="#fff"/>
    <path id="Icon_ionic-ios-paper" data-name="Icon ionic-ios-paper" d="M6.022,4.513V15.959a.494.494,0,0,1-.488.5h0a.494.494,0,0,1-.488-.5V5.65H4.489A1.125,1.125,0,0,0,3.375,6.788V17.026a1.125,1.125,0,0,0,1.114,1.138h12.3a1.088,1.088,0,0,0,1.076-1.1V4.513a1.125,1.125,0,0,0-1.114-1.138l-9.681.071A1.009,1.009,0,0,0,6.022,4.513ZM8.32,5.65h2.925a.494.494,0,0,1,.488.5h0a.494.494,0,0,1-.488.5H8.32a.494.494,0,0,1-.488-.5h0A.494.494,0,0,1,8.32,5.65Zm0,5.688h5.154a.494.494,0,0,1,.488.5h0a.494.494,0,0,1-.488.5H8.32a.494.494,0,0,1-.488-.5h0A.494.494,0,0,1,8.32,11.338Zm6.825,3.839H8.32a.494.494,0,0,1-.488-.5h0a.494.494,0,0,1,.488-.5h6.825a.494.494,0,0,1,.488.5h0A.494.494,0,0,1,15.145,15.177Zm0-5.688H8.32a.494.494,0,0,1-.488-.5h0a.494.494,0,0,1,.488-.5h6.825a.494.494,0,0,1,.488.5h0A.494.494,0,0,1,15.145,9.489Z" transform="translate(62.625 308.625)" fill="#85cbfd"/>
  </g>
</svg>
