<svg id="Group_161" data-name="Group 161" xmlns="http://www.w3.org/2000/svg" width="171.78" height="38.767" viewBox="0 0 171.78 38.767">
  <g id="Group_8" data-name="Group 8" transform="translate(0 0)">
    <g id="Group_2" data-name="Group 2" transform="translate(75.574 12.174)">
      <path id="Path_13" data-name="Path 13" d="M269.643,244.7s.479,6.577-6.513,11.015" transform="translate(-256.839 -231.727)" fill="none" stroke="#ed1c24" stroke-linecap="round" stroke-linejoin="round" stroke-width="1"/>
      <line id="Line_2" data-name="Line 2" x1="1.852" y2="1.181" transform="translate(4.12 20.952)" fill="none" stroke="#ed1c24" stroke-linecap="round" stroke-linejoin="round" stroke-width="1"/>
      <path id="Path_14" data-name="Path 14" d="M263.1,245.358s-.352,2.746-3.864,3.96" transform="translate(-258.211 -231.495)" fill="none" stroke="#ed1c24" stroke-linecap="round" stroke-linejoin="round" stroke-width="1"/>
      <path id="Path_15" data-name="Path 15" d="M272.341,248.57a17.122,17.122,0,0,1-4.629,7.343" transform="translate(-255.227 -230.364)" fill="none" stroke="#ed1c24" stroke-linecap="round" stroke-linejoin="round" stroke-width="1"/>
      <path id="Path_16" data-name="Path 16" d="M273.754,241.886a14.28,14.28,0,0,1,.256,8.3,26.057,26.057,0,0,1-3.416,7.5" transform="translate(-254.213 -232.716)" fill="none" stroke="#ed1c24" stroke-linecap="round" stroke-linejoin="round" stroke-width="1"/>
      <path id="Path_17" data-name="Path 17" d="M262.1,241.036a7.025,7.025,0,0,0-.959,2.555,13.348,13.348,0,0,1-.415,3.032,3,3,0,0,1-1.916,1.725" transform="translate(-258.36 -233.016)" fill="none" stroke="#ed1c24" stroke-linecap="round" stroke-linejoin="round" stroke-width="1"/>
      <path id="Path_18" data-name="Path 18" d="M258.477,247.415a14.334,14.334,0,0,1,1.565-6.258,10.731,10.731,0,0,1,3.48-4.183" transform="translate(-258.477 -234.445)" fill="none" stroke="#ed1c24" stroke-linecap="round" stroke-linejoin="round" stroke-width="1"/>
      <path id="Path_19" data-name="Path 19" d="M263.413,236.739a15.124,15.124,0,0,1,6.705-1.629,12.436,12.436,0,0,1,6.482,2.235" transform="translate(-256.74 -235.103)" fill="none" stroke="#ed1c24" stroke-linecap="round" stroke-linejoin="round" stroke-width="1"/>
      <path id="Path_20" data-name="Path 20" d="M274.254,237.517a12.972,12.972,0,0,1,4.342,9.992" transform="translate(-252.925 -234.254)" fill="none" stroke="#ed1c24" stroke-linecap="round" stroke-linejoin="round" stroke-width="1"/>
      <path id="Path_21" data-name="Path 21" d="M262.091,240.725a11.434,11.434,0,0,1,8.382-3.607,9.99,9.99,0,0,1,8.6,5.714A14.633,14.633,0,0,1,280,251.47a19.292,19.292,0,0,1-2.171,5.731" transform="translate(-257.205 -234.397)" fill="none" stroke="#ed1c24" stroke-linecap="round" stroke-linejoin="round" stroke-width="1"/>
      <path id="Path_22" data-name="Path 22" d="M275.183,241.009s-2.477-2.427-5.325-2.14a7.369,7.369,0,0,0-5.116,2.408,10.853,10.853,0,0,0-2.2,4.185" transform="translate(-257.047 -233.786)" fill="none" stroke="#ed1c24" stroke-linecap="round" stroke-linejoin="round" stroke-width="1"/>
      <path id="Path_23" data-name="Path 23" d="M265.879,257.442a31.808,31.808,0,0,0,3.7-4.183,16.745,16.745,0,0,0,2.394-6.928c.192-2.235-1.23-3.735-2.643-3.735s-2.37,1.086-2.593,2.842-1.018,5.068-2.715,6.577" transform="translate(-256.524 -232.467)" fill="none" stroke="#ed1c24" stroke-linecap="round" stroke-linejoin="round" stroke-width="1"/>
      <path id="Path_24" data-name="Path 24" d="M275.51,248.929a12.137,12.137,0,0,0,0-4.757,5.132,5.132,0,0,0-4.63-3.336,5.61,5.61,0,0,0-5.044,3.5c-.766,2.106-.255,4.022-1.852,6a8.372,8.372,0,0,1-3.735,2.905" transform="translate(-257.853 -233.086)" fill="none" stroke="#ed1c24" stroke-linecap="round" stroke-linejoin="round" stroke-width="1"/>
    </g>
    <path id="Path_25" data-name="Path 25" d="M202.574,261.8V234.429h3.862l2.29,3.442a15.86,15.86,0,0,1,9.358-3.442q5.165,0,7.325,3.753,5.24-3.752,9.83-3.753,8.655,0,8.655,10.4V261.8h-6.908V244.57q0-4.563-3.857-4.561-3.078,0-6.439,3.545V261.8h-6.91V244.648q0-4.642-3.807-4.64-3.283,0-6.49,3.545V261.8Z" transform="translate(-202.574 -223.166)" fill="#fff"/>
    <path id="Path_26" data-name="Path 26" d="M235.765,264.865V236.032q0-9.932,12.3-9.934a17.067,17.067,0,0,1,6.1,1.044v5.475a16.293,16.293,0,0,0-6.125-1.044q-5.372,0-5.372,5.787h8.213v5.475H242.67v21.924Z" transform="translate(-190.894 -226.098)" fill="#fff"/>
    <path id="Path_27" data-name="Path 27" d="M258.058,230.066V264.38H251.15V227.1Z" transform="translate(-185.48 -225.745)" fill="#fff"/>
    <path id="Path_28" data-name="Path 28" d="M279.447,261.8V234.429h5.344l.86,4.976a12.815,12.815,0,0,1,7.611-3.493v5.579c-2.577.7-4.875,1.155-6.908,3.466V261.8Z" transform="translate(-175.523 -223.166)" fill="#fff"/>
    <path id="Path_29" data-name="Path 29" d="M289.4,253.276q0-8.42,11.884-8.42a35.054,35.054,0,0,1,6.365.52v-1.8q0-3.676-7.119-3.674a31.506,31.506,0,0,0-8.916,1.3v-5.474a31.508,31.508,0,0,1,8.916-1.3q14.026,0,14.026,9.021V261.8h-3.493l-2.974-1.929a15.751,15.751,0,0,1-7.611,1.929q-11.076,0-11.077-8.525m11.884-3.205q-4.978,0-4.976,3.128t4.169,3.127a11.885,11.885,0,0,0,7.172-2.136v-3.6a33.084,33.084,0,0,0-6.365-.52" transform="translate(-172.02 -223.166)" fill="#fff"/>
  </g>
  <text id="TM" transform="translate(148.78 15.35)" fill="#fff" font-size="15" font-family="Helvetica" letter-spacing="0.03em"><tspan x="0" y="0">TM</tspan></text>
</svg>
