<svg id="Group_570" data-name="Group 570" xmlns="http://www.w3.org/2000/svg" xmlns:xlink="http://www.w3.org/1999/xlink" width="117.808" height="53.051" viewBox="0 0 117.808 53.051">
  <defs>
    <clipPath id="clip-path">
      <rect id="Rectangle_252" data-name="Rectangle 252" width="117.808" height="53.051" fill="none"/>
    </clipPath>
    <clipPath id="clip-path-3">
      <rect id="Rectangle_249" data-name="Rectangle 249" width="24.503" height="24.953" fill="none"/>
    </clipPath>
    <clipPath id="clip-path-4">
      <rect id="Rectangle_250" data-name="Rectangle 250" width="12.8" height="12.409" fill="none"/>
    </clipPath>
  </defs>
  <g id="Group_578" data-name="Group 578" clip-path="url(#clip-path)">
    <g id="Group_577" data-name="Group 577">
      <g id="Group_576" data-name="Group 576" clip-path="url(#clip-path)">
        <path id="Path_744" data-name="Path 744" d="M1.889,24.159A1.769,1.769,0,0,1,.12,22.414L.066,18.958C-.1,9.382-.17,5.011,2.439,2.394,4.957-.131,9.115-.073,17.4.043c1.616.023,3.4.048,5.36.057a1.769,1.769,0,0,1-.016,3.538c-1.975-.009-3.767-.034-5.393-.057-6.825-.1-10.945-.153-12.4,1.311C3.393,6.449,3.468,10.871,3.6,18.9l.055,3.468a1.769,1.769,0,0,1-1.745,1.793Z" transform="translate(0 0)" fill="#ffd45a"/>
        <path id="Path_745" data-name="Path 745" d="M28.514,51.437h-.028a1.769,1.769,0,0,1-1.741-1.8c.047-3.027,0-5.639-.042-7.889-.117-6.406-.188-10.272,2.285-12.7,2.757-2.71,7.833-2.825,18.759-2.44a1.769,1.769,0,0,1-.125,3.536c-9.815-.346-14.477-.222-16.154,1.427-1.387,1.364-1.327,4.658-1.228,10.115.042,2.284.09,4.935.042,8.008A1.769,1.769,0,0,1,28.514,51.437Z" transform="translate(-14.867 -14.748)" fill="#ffd45a"/>
        <path id="Line_24" data-name="Line 24" d="M8.2-.462H-2.231A1.769,1.769,0,0,1-4-2.231,1.769,1.769,0,0,1-2.231-4H8.2A1.769,1.769,0,0,1,9.969-2.231,1.769,1.769,0,0,1,8.2-.462Z" transform="translate(15.877 26.504)" fill="#ffd45a"/>
        <path id="Path_746" data-name="Path 746" d="M94.488,41.1a1.236,1.236,0,0,1,.334.9V56.656a1.189,1.189,0,0,1-.3.86,1.089,1.089,0,0,1-.824.311,1.018,1.018,0,0,1-.788-.311,1.217,1.217,0,0,1-.287-.86V45.55l-4.681,8.909a1.237,1.237,0,0,1-2.341,0L80.9,45.645V56.656a1.217,1.217,0,0,1-.287.86,1.05,1.05,0,0,1-.812.311A1.038,1.038,0,0,1,79,57.5a1.2,1.2,0,0,1-.3-.848V41.991a1.235,1.235,0,0,1,.334-.9,1.144,1.144,0,0,1,.86-.346,1.351,1.351,0,0,1,1.194.86L86.8,52.524l5.661-10.915a1.338,1.338,0,0,1,1.171-.86,1.144,1.144,0,0,1,.859.346" transform="translate(-43.891 -22.725)" fill="#ffd02f"/>
        <path id="Path_747" data-name="Path 747" d="M130.4,52.417a1.108,1.108,0,0,1,.585-.167,1.163,1.163,0,0,1,.8.311.965.965,0,0,1,.346.74,1.105,1.105,0,0,1-.1.454L125.4,67.847a1.124,1.124,0,0,1-.418.514,1.053,1.053,0,0,1-.585.179,1.187,1.187,0,0,1-.776-.287.893.893,0,0,1-.346-.716,1.3,1.3,0,0,1,.119-.478l1.648-3.511-4.61-9.793a.973.973,0,0,1,.287-1.194,1.325,1.325,0,0,1,.859-.311,1.059,1.059,0,0,1,1.027.669l3.7,8.216,3.678-8.192a1.044,1.044,0,0,1,.418-.525" transform="translate(-67.109 -29.139)" fill="#ffd02f"/>
        <path id="Path_748" data-name="Path 748" d="M152.473,57.631a1.234,1.234,0,0,1-.334-.9V42.213a1.177,1.177,0,0,1,.323-.872,1.21,1.21,0,0,1,.9-.322h8.551q1.147,0,1.147,1t-1.147,1h-7.333V48.3h6.855q1.147,0,1.147,1t-1.147,1h-6.855v6.425a1.251,1.251,0,0,1-.322.908,1.188,1.188,0,0,1-.9.334,1.174,1.174,0,0,1-.884-.346" transform="translate(-84.847 -22.876)" fill="#ffd02f"/>
        <path id="Path_749" data-name="Path 749" d="M182.131,57.539a1.051,1.051,0,0,1-.346-.859V41.919a1.089,1.089,0,0,1,.346-.872,1.289,1.289,0,0,1,.872-.3,1.244,1.244,0,0,1,.859.3,1.109,1.109,0,0,1,.335.872V56.68a1.07,1.07,0,0,1-.335.859,1.272,1.272,0,0,1-.859.287,1.318,1.318,0,0,1-.872-.287" transform="translate(-101.38 -22.725)" fill="#ffd02f"/>
        <path id="Path_750" data-name="Path 750" d="M196.051,63.457a4.986,4.986,0,0,1-2.006-2.114,7.616,7.616,0,0,1,0-6.4,4.992,4.992,0,0,1,2.006-2.114,6.534,6.534,0,0,1,6.042,0,5,5,0,0,1,2.006,2.114,7.616,7.616,0,0,1,0,6.4,4.988,4.988,0,0,1-2.006,2.114,6.534,6.534,0,0,1-6.042,0m5.469-2.221a4.821,4.821,0,0,0,.848-3.082,4.777,4.777,0,0,0-.859-3.069,3.323,3.323,0,0,0-4.873,0,4.777,4.777,0,0,0-.859,3.069,4.815,4.815,0,0,0,.848,3.082,3.377,3.377,0,0,0,4.9,0" transform="translate(-107.824 -29.049)" fill="#ffd02f"/>
        <path id="Path_751" data-name="Path 751" d="M232.569,53.17a1.068,1.068,0,0,1-.263.788,1.413,1.413,0,0,1-.907.311l-.717.072a3.091,3.091,0,0,0-2.233,1.051,3.4,3.4,0,0,0-.728,2.2v5.47a1.071,1.071,0,0,1-.335.86,1.274,1.274,0,0,1-.859.287,1.321,1.321,0,0,1-.872-.287,1.052,1.052,0,0,1-.346-.86V53.338a1.059,1.059,0,0,1,.346-.848,1.289,1.289,0,0,1,.872-.3,1.133,1.133,0,0,1,.8.3,1.066,1.066,0,0,1,.323.824V54.46a3.508,3.508,0,0,1,1.385-1.6,4.658,4.658,0,0,1,2.054-.645l.334-.024q1.147-.072,1.147.979" transform="translate(-125.652 -29.104)" fill="#ffd02f"/>
        <path id="Path_752" data-name="Path 752" d="M252.747,53.259a4.938,4.938,0,0,1,1.135,3.559V63a1.121,1.121,0,0,1-.311.848,1.19,1.19,0,0,1-.859.3A1.07,1.07,0,0,1,251.564,63V62.12a3.356,3.356,0,0,1-1.349,1.54,3.98,3.98,0,0,1-2.09.537,4.723,4.723,0,0,1-2.1-.466,3.607,3.607,0,0,1-1.493-1.3,3.368,3.368,0,0,1-.537-1.863,2.868,2.868,0,0,1,.657-1.994,3.918,3.918,0,0,1,2.174-1.039,21.83,21.83,0,0,1,4.167-.31h.55v-.693a2.808,2.808,0,0,0-.55-1.935,2.3,2.3,0,0,0-1.767-.6,5.626,5.626,0,0,0-1.576.215,11.824,11.824,0,0,0-1.624.621,2.344,2.344,0,0,1-.908.359.735.735,0,0,1-.585-.263.983.983,0,0,1-.227-.669,1.035,1.035,0,0,1,.2-.632,2.128,2.128,0,0,1,.657-.537,8.156,8.156,0,0,1,1.958-.729,9.16,9.16,0,0,1,2.174-.275,4.607,4.607,0,0,1,3.452,1.171M250.7,61.511a3.244,3.244,0,0,0,.836-2.305v-.621h-.43a18.618,18.618,0,0,0-2.867.167,2.816,2.816,0,0,0-1.433.561,1.463,1.463,0,0,0-.43,1.135A1.793,1.793,0,0,0,247,61.857a2.255,2.255,0,0,0,1.553.549,2.81,2.81,0,0,0,2.15-.9" transform="translate(-136.073 -29.049)" fill="#ffd02f"/>
        <g id="Group_572" data-name="Group 572" transform="translate(5.657 5.528)" opacity="0.8">
          <g id="Group_571" data-name="Group 571">
            <g id="Group_570-2" data-name="Group 570" clip-path="url(#clip-path-3)">
              <path id="Path_753" data-name="Path 753" d="M14.662,37.452a1.769,1.769,0,0,1-1.769-1.763c-.007-2.1-.035-4-.059-5.719-.118-8.281-.178-12.438,2.371-14.98,2.676-2.669,7.221-2.59,17.18-2.419l3.165.052a1.769,1.769,0,0,1-.052,3.538l-3.173-.052c-8.386-.144-13.005-.223-14.621,1.387-1.488,1.484-1.429,5.6-1.332,12.423.025,1.726.052,3.639.059,5.757a1.769,1.769,0,0,1-1.763,1.775Z" transform="translate(-12.79 -12.499)" fill="#46a568"/>
            </g>
          </g>
        </g>
        <g id="Group_575" data-name="Group 575" transform="translate(5.688 5.57)" opacity="0.8">
          <g id="Group_574" data-name="Group 574">
            <g id="Group_573" data-name="Group 573" clip-path="url(#clip-path-4)">
              <path id="Path_754" data-name="Path 754" d="M14.7,25a1.769,1.769,0,0,1-1.76-1.6c-.343-3.677.434-6.492,2.311-8.365,1.934-1.931,4.9-2.721,8.808-2.349a1.769,1.769,0,0,1-.335,3.523c-2.811-.267-4.821.18-5.973,1.331-1.095,1.093-1.528,2.954-1.288,5.532a1.769,1.769,0,0,1-1.6,1.926C14.811,25,14.755,25,14.7,25Z" transform="translate(-12.861 -12.592)" fill="#65c97d"/>
            </g>
          </g>
        </g>
        <path id="Path_755" data-name="Path 755" d="M13.451,102.758a.366.366,0,0,1,.265.117.389.389,0,0,1,.117.287.383.383,0,0,1-.1.265l-2.58,3.259v3.206a.436.436,0,1,1-.87,0v-3.217l-2.58-3.248a.391.391,0,0,1,.016-.552.394.394,0,0,1,.281-.117.383.383,0,0,1,.308.159l2.42,3.09,2.41-3.09a.382.382,0,0,1,.308-.159" transform="translate(-4.24 -57.307)" fill="#fff"/>
        <path id="Path_756" data-name="Path 756" d="M22.324,112.84a2.188,2.188,0,0,1-.86-.939,3.47,3.47,0,0,1,0-2.834,2.193,2.193,0,0,1,.86-.939,2.493,2.493,0,0,1,1.29-.329,2.522,2.522,0,0,1,1.3.329,2.183,2.183,0,0,1,.865.939,3.47,3.47,0,0,1,0,2.834,2.178,2.178,0,0,1-.865.939,2.517,2.517,0,0,1-1.3.329,2.489,2.489,0,0,1-1.29-.329m2.463-.886a2.814,2.814,0,0,0-.005-2.93,1.582,1.582,0,0,0-2.335,0,2.8,2.8,0,0,0-.005,2.925,1.611,1.611,0,0,0,2.346.005" transform="translate(-11.802 -60.118)" fill="#fff"/>
        <path id="Path_757" data-name="Path 757" d="M39.392,107.963a.428.428,0,0,1,.111.308v4.49a.392.392,0,0,1-.425.414.409.409,0,0,1-.3-.111.394.394,0,0,1-.111-.292v-.531a1.683,1.683,0,0,1-.685.711,2.013,2.013,0,0,1-.993.244,1.784,1.784,0,0,1-1.391-.515,2.2,2.2,0,0,1-.467-1.523v-2.887a.417.417,0,0,1,.117-.308.43.43,0,0,1,.318-.117.413.413,0,0,1,.313.117.428.428,0,0,1,.111.308v2.866a1.541,1.541,0,0,0,.276,1.014,1.082,1.082,0,0,0,.87.324,1.431,1.431,0,0,0,1.093-.441,1.628,1.628,0,0,0,.414-1.162v-2.6a.417.417,0,0,1,.117-.308.43.43,0,0,1,.318-.117.412.412,0,0,1,.313.117" transform="translate(-19.592 -60.145)" fill="#fff"/>
        <path id="Path_758" data-name="Path 758" d="M51.645,108.2a.377.377,0,0,1-.1.271.508.508,0,0,1-.329.123l-.318.031a1.433,1.433,0,0,0-1.056.5,1.628,1.628,0,0,0-.345,1.035v2.58a.408.408,0,0,1-.117.318.44.44,0,0,1-.308.106.446.446,0,0,1-.313-.111.4.4,0,0,1-.122-.313v-4.479a.393.393,0,0,1,.127-.313.451.451,0,0,1,.308-.111.391.391,0,0,1,.4.414v.594a1.617,1.617,0,0,1,.632-.711,2.138,2.138,0,0,1,.939-.287l.149-.01q.446-.032.446.36" transform="translate(-27.127 -60.142)" fill="#fff"/>
        <path id="Path_759" data-name="Path 759" d="M63.711,110.269a.448.448,0,0,1-.117-.323v-6.667a.407.407,0,0,1,.122-.308.449.449,0,0,1,.324-.117h2.516a2.685,2.685,0,0,1,1.831.573,2.047,2.047,0,0,1,.653,1.624,2.071,2.071,0,0,1-.658,1.635,2.657,2.657,0,0,1-1.826.584H64.464v2.675a.448.448,0,0,1-.117.323.476.476,0,0,1-.637,0m2.76-3.721q1.709,0,1.709-1.5,0-1.475-1.709-1.476H64.464v2.972Z" transform="translate(-35.466 -57.361)" fill="#fff"/>
        <path id="Path_760" data-name="Path 760" d="M82.217,111.991a.354.354,0,0,1,.085.244q0,.265-.372.488a3.213,3.213,0,0,1-.807.334,3.254,3.254,0,0,1-.828.111,2.527,2.527,0,0,1-1.895-.712,2.687,2.687,0,0,1-.7-1.963,3.082,3.082,0,0,1,.308-1.407,2.3,2.3,0,0,1,.865-.95,2.388,2.388,0,0,1,1.269-.34,2.053,2.053,0,0,1,1.6.658,2.562,2.562,0,0,1,.594,1.783.457.457,0,0,1-.085.308.352.352,0,0,1-.276.1H78.565q.1,1.826,1.73,1.826a2.028,2.028,0,0,0,.711-.111,4.676,4.676,0,0,0,.637-.3,1.01,1.01,0,0,1,.372-.159.261.261,0,0,1,.2.1m-3.147-3.1a1.94,1.94,0,0,0-.483,1.2h3a1.839,1.839,0,0,0-.393-1.2,1.317,1.317,0,0,0-1.04-.419,1.44,1.44,0,0,0-1.088.425" transform="translate(-43.335 -60.118)" fill="#fff"/>
        <path id="Path_761" data-name="Path 761" d="M94.053,108.2a.377.377,0,0,1-.1.271.508.508,0,0,1-.329.123l-.318.031a1.433,1.433,0,0,0-1.056.5,1.628,1.628,0,0,0-.345,1.035v2.58a.408.408,0,0,1-.117.318.44.44,0,0,1-.308.106.446.446,0,0,1-.313-.111.4.4,0,0,1-.122-.313v-4.479a.393.393,0,0,1,.127-.313.452.452,0,0,1,.308-.111.391.391,0,0,1,.4.414v.594a1.617,1.617,0,0,1,.632-.711,2.138,2.138,0,0,1,.939-.287l.149-.01q.446-.032.446.36" transform="translate(-50.777 -60.142)" fill="#fff"/>
        <path id="Path_762" data-name="Path 762" d="M99.813,113.053a2.825,2.825,0,0,1-.78-.329,1.053,1.053,0,0,1-.271-.239.453.453,0,0,1-.08-.271.332.332,0,0,1,.08-.228.263.263,0,0,1,.207-.09.794.794,0,0,1,.372.159,3.565,3.565,0,0,0,.632.3,2.348,2.348,0,0,0,.78.111,1.668,1.668,0,0,0,.892-.2.651.651,0,0,0,.318-.584.58.58,0,0,0-.117-.376.969.969,0,0,0-.4-.255,5.729,5.729,0,0,0-.839-.228,3.146,3.146,0,0,1-1.338-.542,1.143,1.143,0,0,1-.4-.924,1.338,1.338,0,0,1,.255-.807,1.717,1.717,0,0,1,.706-.552,2.478,2.478,0,0,1,1.024-.2,2.887,2.887,0,0,1,.8.111,2.389,2.389,0,0,1,.685.313.69.69,0,0,1,.361.53.339.339,0,0,1-.085.234.262.262,0,0,1-.2.1.789.789,0,0,1-.382-.18,3.445,3.445,0,0,0-.563-.3,1.792,1.792,0,0,0-.658-.106,1.32,1.32,0,0,0-.8.223.7.7,0,0,0-.3.594.6.6,0,0,0,.111.376.913.913,0,0,0,.372.255,4.307,4.307,0,0,0,.748.218,5.347,5.347,0,0,1,1.12.35,1.3,1.3,0,0,1,.568.467,1.319,1.319,0,0,1,.17.7,1.271,1.271,0,0,1-.563,1.078,2.474,2.474,0,0,1-1.486.409,3.612,3.612,0,0,1-.929-.117" transform="translate(-55.034 -60.118)" fill="#fff"/>
        <path id="Path_763" data-name="Path 763" d="M111.387,112.84a2.188,2.188,0,0,1-.86-.939,3.47,3.47,0,0,1,0-2.834,2.193,2.193,0,0,1,.86-.939,2.493,2.493,0,0,1,1.29-.329,2.522,2.522,0,0,1,1.3.329,2.183,2.183,0,0,1,.865.939,3.47,3.47,0,0,1,0,2.834,2.178,2.178,0,0,1-.865.939,2.517,2.517,0,0,1-1.3.329,2.489,2.489,0,0,1-1.29-.329m2.463-.886a2.814,2.814,0,0,0-.005-2.93,1.582,1.582,0,0,0-2.335,0,2.8,2.8,0,0,0-.005,2.925,1.611,1.611,0,0,0,2.346.005" transform="translate(-61.472 -60.118)" fill="#fff"/>
        <path id="Path_764" data-name="Path 764" d="M128.7,109.847v2.877a.387.387,0,0,1-.425.425.442.442,0,0,1-.318-.111.412.412,0,0,1-.117-.313V109.9a1.6,1.6,0,0,0-.281-1.051,1.119,1.119,0,0,0-.9-.329,1.516,1.516,0,0,0-1.136.435,1.616,1.616,0,0,0-.425,1.178v2.591a.387.387,0,0,1-.425.425.442.442,0,0,1-.318-.111.412.412,0,0,1-.117-.313v-4.48a.416.416,0,0,1,.117-.308.43.43,0,0,1,.318-.117.4.4,0,0,1,.3.117.413.413,0,0,1,.111.3v.541a1.738,1.738,0,0,1,.711-.727,2.134,2.134,0,0,1,1.04-.249q1.858,0,1.858,2.049" transform="translate(-69.288 -60.118)" fill="#fff"/>
        <path id="Path_765" data-name="Path 765" d="M141.7,109.836v2.887a.427.427,0,0,1-.111.308.4.4,0,0,1-.3.117.4.4,0,0,1-.425-.425v-.51a1.516,1.516,0,0,1-.616.705,1.811,1.811,0,0,1-.955.25,2.1,2.1,0,0,1-.918-.2,1.641,1.641,0,0,1-.663-.563,1.391,1.391,0,0,1-.244-.8,1.292,1.292,0,0,1,.3-.907,1.8,1.8,0,0,1,.977-.467,9.65,9.65,0,0,1,1.89-.143h.234v-.35a1.4,1.4,0,0,0-.26-.934,1.068,1.068,0,0,0-.844-.3,3.128,3.128,0,0,0-1.465.392.965.965,0,0,1-.4.181.272.272,0,0,1-.212-.1.354.354,0,0,1-.085-.244.4.4,0,0,1,.09-.26,1.057,1.057,0,0,1,.292-.228,3.416,3.416,0,0,1,.844-.334,3.743,3.743,0,0,1,.939-.122q1.943,0,1.943,2.038m-1.247,2.224a1.544,1.544,0,0,0,.409-1.109v-.308h-.191a9.443,9.443,0,0,0-1.422.08,1.383,1.383,0,0,0-.7.265.7.7,0,0,0-.207.547.877.877,0,0,0,.3.684,1.094,1.094,0,0,0,.759.271,1.381,1.381,0,0,0,1.046-.43" transform="translate(-76.663 -60.118)" fill="#fff"/>
        <path id="Path_766" data-name="Path 766" d="M150.715,110.213a.4.4,0,0,1-.122-.313v-6.741a.4.4,0,0,1,.122-.313.446.446,0,0,1,.313-.111.433.433,0,0,1,.3.111.4.4,0,0,1,.122.313V109.9a.4.4,0,0,1-.122.313.433.433,0,0,1-.3.111.446.446,0,0,1-.313-.111" transform="translate(-83.985 -57.294)" fill="#fff"/>
        <path id="Path_767" data-name="Path 767" d="M168.35,109.939a.338.338,0,0,1-.122.265.428.428,0,0,1-.292.107.376.376,0,0,1-.372-.255l-.754-1.72h-4l-.764,1.72a.376.376,0,0,1-.372.255.437.437,0,0,1-.3-.111.347.347,0,0,1-.127-.271.376.376,0,0,1,.042-.169l3.036-6.751a.456.456,0,0,1,.191-.223.543.543,0,0,1,.276-.074.53.53,0,0,1,.287.08.5.5,0,0,1,.191.218l3.036,6.751a.4.4,0,0,1,.042.18m-1.858-2.325L164.8,103.8l-1.677,3.811Z" transform="translate(-89.927 -57.28)" fill="#fff"/>
        <path id="Path_768" data-name="Path 768" d="M180.067,113.053a2.831,2.831,0,0,1-.78-.329,1.053,1.053,0,0,1-.271-.239.454.454,0,0,1-.08-.271.332.332,0,0,1,.08-.228.263.263,0,0,1,.207-.09.794.794,0,0,1,.372.159,3.565,3.565,0,0,0,.632.3,2.35,2.35,0,0,0,.78.111,1.668,1.668,0,0,0,.892-.2.651.651,0,0,0,.318-.584.58.58,0,0,0-.117-.376.966.966,0,0,0-.4-.255,5.73,5.73,0,0,0-.839-.228,3.146,3.146,0,0,1-1.338-.542,1.143,1.143,0,0,1-.4-.924,1.338,1.338,0,0,1,.255-.807,1.72,1.72,0,0,1,.706-.552,2.478,2.478,0,0,1,1.024-.2,2.887,2.887,0,0,1,.8.111,2.383,2.383,0,0,1,.685.313.69.69,0,0,1,.361.53.339.339,0,0,1-.085.234.262.262,0,0,1-.2.1.789.789,0,0,1-.382-.18,3.426,3.426,0,0,0-.563-.3,1.79,1.79,0,0,0-.658-.106,1.32,1.32,0,0,0-.8.223.7.7,0,0,0-.3.594.6.6,0,0,0,.111.376.913.913,0,0,0,.372.255,4.319,4.319,0,0,0,.748.218,5.348,5.348,0,0,1,1.12.35,1.3,1.3,0,0,1,.568.467,1.319,1.319,0,0,1,.17.7,1.271,1.271,0,0,1-.563,1.078,2.474,2.474,0,0,1-1.486.409,3.612,3.612,0,0,1-.929-.117" transform="translate(-99.791 -60.118)" fill="#fff"/>
        <path id="Path_769" data-name="Path 769" d="M191.587,113.053a2.828,2.828,0,0,1-.781-.329,1.052,1.052,0,0,1-.271-.239.457.457,0,0,1-.08-.271.334.334,0,0,1,.08-.228.263.263,0,0,1,.207-.09.8.8,0,0,1,.372.159,3.562,3.562,0,0,0,.631.3,2.35,2.35,0,0,0,.78.111,1.671,1.671,0,0,0,.892-.2.651.651,0,0,0,.318-.584.58.58,0,0,0-.116-.376.972.972,0,0,0-.4-.255,5.739,5.739,0,0,0-.839-.228,3.143,3.143,0,0,1-1.337-.542,1.142,1.142,0,0,1-.4-.924,1.338,1.338,0,0,1,.255-.807A1.719,1.719,0,0,1,191.6,108a2.48,2.48,0,0,1,1.025-.2,2.881,2.881,0,0,1,.8.111,2.383,2.383,0,0,1,.685.313.691.691,0,0,1,.361.53.34.34,0,0,1-.085.234.261.261,0,0,1-.2.1.79.79,0,0,1-.382-.18,3.429,3.429,0,0,0-.563-.3,1.79,1.79,0,0,0-.658-.106,1.319,1.319,0,0,0-.8.223.7.7,0,0,0-.3.594.592.592,0,0,0,.112.376.91.91,0,0,0,.372.255,4.312,4.312,0,0,0,.748.218,5.339,5.339,0,0,1,1.12.35,1.306,1.306,0,0,1,.568.467,1.319,1.319,0,0,1,.169.7,1.27,1.27,0,0,1-.562,1.078,2.475,2.475,0,0,1-1.486.409,3.607,3.607,0,0,1-.929-.117" transform="translate(-106.216 -60.118)" fill="#fff"/>
        <path id="Path_770" data-name="Path 770" d="M202.543,103.826a.512.512,0,0,1-.159-.393.5.5,0,0,1,.159-.382.652.652,0,0,1,.828,0,.5.5,0,0,1,.159.382.512.512,0,0,1-.159.393.652.652,0,0,1-.828,0m.1,6.481a.4.4,0,0,1-.122-.313v-4.48a.4.4,0,0,1,.122-.313.447.447,0,0,1,.313-.111.426.426,0,0,1,.307.111.413.413,0,0,1,.117.313v4.48a.409.409,0,0,1-.117.318.439.439,0,0,1-.307.106.446.446,0,0,1-.313-.111" transform="translate(-112.868 -57.388)" fill="#fff"/>
        <path id="Path_771" data-name="Path 771" d="M208.674,113.053a2.828,2.828,0,0,1-.781-.329,1.052,1.052,0,0,1-.271-.239.457.457,0,0,1-.08-.271.334.334,0,0,1,.08-.228.263.263,0,0,1,.207-.09.8.8,0,0,1,.372.159,3.562,3.562,0,0,0,.631.3,2.35,2.35,0,0,0,.78.111,1.671,1.671,0,0,0,.892-.2.651.651,0,0,0,.318-.584.58.58,0,0,0-.116-.376.972.972,0,0,0-.4-.255,5.738,5.738,0,0,0-.839-.228,3.143,3.143,0,0,1-1.337-.542,1.142,1.142,0,0,1-.4-.924,1.338,1.338,0,0,1,.255-.807,1.719,1.719,0,0,1,.705-.552,2.48,2.48,0,0,1,1.025-.2,2.881,2.881,0,0,1,.8.111,2.383,2.383,0,0,1,.685.313.691.691,0,0,1,.361.53.34.34,0,0,1-.085.234.261.261,0,0,1-.2.1.79.79,0,0,1-.382-.18,3.429,3.429,0,0,0-.563-.3,1.791,1.791,0,0,0-.658-.106,1.319,1.319,0,0,0-.8.223.7.7,0,0,0-.3.594.592.592,0,0,0,.112.376.91.91,0,0,0,.372.255,4.313,4.313,0,0,0,.748.218,5.339,5.339,0,0,1,1.12.35,1.306,1.306,0,0,1,.568.467,1.319,1.319,0,0,1,.169.7,1.27,1.27,0,0,1-.562,1.078,2.474,2.474,0,0,1-1.486.409,3.607,3.607,0,0,1-.929-.117" transform="translate(-115.745 -60.118)" fill="#fff"/>
        <path id="Path_772" data-name="Path 772" d="M221.407,110.921a.306.306,0,0,1-.133.271.622.622,0,0,1-.4.069l-.287-.021a1.8,1.8,0,0,1-1.253-.51,1.956,1.956,0,0,1-.4-1.348v-2.665h-.711a.4.4,0,0,1-.281-.09.3.3,0,0,1-.1-.239.333.333,0,0,1,.1-.254.39.39,0,0,1,.281-.1h.711v-1.2a.411.411,0,0,1,.117-.313.442.442,0,0,1,.318-.111.428.428,0,0,1,.308.111.412.412,0,0,1,.117.313v1.2h1.178a.376.376,0,0,1,.271.1.335.335,0,0,1,.1.254.305.305,0,0,1-.1.239.39.39,0,0,1-.271.09h-1.178v2.707a1.224,1.224,0,0,0,.239.844,1.022,1.022,0,0,0,.717.292l.287.021q.372.032.372.34" transform="translate(-121.488 -58.231)" fill="#fff"/>
        <path id="Path_773" data-name="Path 773" d="M231.652,109.836v2.887a.427.427,0,0,1-.111.308.4.4,0,0,1-.3.117.4.4,0,0,1-.425-.425v-.51a1.515,1.515,0,0,1-.616.705,1.811,1.811,0,0,1-.955.25,2.1,2.1,0,0,1-.918-.2,1.64,1.64,0,0,1-.663-.563,1.391,1.391,0,0,1-.244-.8,1.292,1.292,0,0,1,.3-.907,1.805,1.805,0,0,1,.977-.467,9.65,9.65,0,0,1,1.89-.143h.234v-.35a1.393,1.393,0,0,0-.26-.934,1.067,1.067,0,0,0-.843-.3,3.128,3.128,0,0,0-1.465.392.963.963,0,0,1-.4.181.272.272,0,0,1-.212-.1.352.352,0,0,1-.085-.244.4.4,0,0,1,.09-.26,1.057,1.057,0,0,1,.292-.228,3.413,3.413,0,0,1,.844-.334,3.738,3.738,0,0,1,.939-.122q1.942,0,1.942,2.038M230.4,112.06a1.544,1.544,0,0,0,.409-1.109v-.308h-.191a9.443,9.443,0,0,0-1.422.08,1.384,1.384,0,0,0-.7.265.7.7,0,0,0-.207.547.877.877,0,0,0,.3.684,1.094,1.094,0,0,0,.759.271,1.38,1.38,0,0,0,1.045-.43" transform="translate(-126.828 -60.118)" fill="#fff"/>
        <path id="Path_774" data-name="Path 774" d="M245,109.847v2.877a.387.387,0,0,1-.425.425.441.441,0,0,1-.318-.111.412.412,0,0,1-.117-.313V109.9a1.6,1.6,0,0,0-.281-1.051,1.119,1.119,0,0,0-.9-.329,1.515,1.515,0,0,0-1.136.435,1.616,1.616,0,0,0-.425,1.178v2.591a.387.387,0,0,1-.425.425.441.441,0,0,1-.318-.111.412.412,0,0,1-.117-.313v-4.48a.416.416,0,0,1,.117-.308.43.43,0,0,1,.318-.117.4.4,0,0,1,.3.117.413.413,0,0,1,.111.3v.541a1.738,1.738,0,0,1,.711-.727,2.134,2.134,0,0,1,1.04-.249q1.858,0,1.858,2.049" transform="translate(-134.149 -60.118)" fill="#fff"/>
        <path id="Path_775" data-name="Path 775" d="M255.919,110.921a.306.306,0,0,1-.133.271.622.622,0,0,1-.4.069l-.287-.021a1.8,1.8,0,0,1-1.253-.51,1.956,1.956,0,0,1-.4-1.348v-2.665h-.711a.4.4,0,0,1-.281-.09.3.3,0,0,1-.1-.239.334.334,0,0,1,.1-.254.39.39,0,0,1,.281-.1h.711v-1.2a.411.411,0,0,1,.117-.313.442.442,0,0,1,.318-.111.428.428,0,0,1,.308.111.412.412,0,0,1,.117.313v1.2h1.178a.376.376,0,0,1,.271.1.335.335,0,0,1,.1.254.305.305,0,0,1-.1.239.39.39,0,0,1-.271.09h-1.178v2.707a1.224,1.224,0,0,0,.239.844,1.022,1.022,0,0,0,.717.292l.287.021q.372.032.372.34" transform="translate(-140.735 -58.231)" fill="#fff"/>
      </g>
    </g>
  </g>
</svg>
